<svg xmlns="http://www.w3.org/2000/svg" xmlns:xlink="http://www.w3.org/1999/xlink" width="564" zoomAndPan="magnify" viewBox="0 0 422.88 599.999999" height="800" preserveAspectRatio="xMidYMid meet" version="1.0"><defs><g/></defs><g fill="#3d3d3d" fill-opacity="1"><g transform="translate(26.890181, 438.353636)"><g><path d="M 7.21875 -4.84375 L 5.625 -4.84375 C 5.5625 -5.25 5.382812 -5.566406 5.09375 -5.796875 C 4.8125 -6.035156 4.453125 -6.15625 4.015625 -6.15625 C 3.441406 -6.15625 2.976562 -5.941406 2.625 -5.515625 C 2.28125 -5.097656 2.109375 -4.5 2.109375 -3.71875 C 2.109375 -2.925781 2.28125 -2.320312 2.625 -1.90625 C 2.976562 -1.5 3.441406 -1.296875 4.015625 -1.296875 C 4.429688 -1.296875 4.785156 -1.40625 5.078125 -1.625 C 5.367188 -1.84375 5.550781 -2.148438 5.625 -2.546875 L 7.21875 -2.53125 C 7.15625 -2.082031 6.988281 -1.65625 6.71875 -1.25 C 6.457031 -0.84375 6.09375 -0.515625 5.625 -0.265625 C 5.164062 -0.015625 4.617188 0.109375 3.984375 0.109375 C 3.316406 0.109375 2.722656 -0.0390625 2.203125 -0.34375 C 1.679688 -0.644531 1.269531 -1.078125 0.96875 -1.640625 C 0.664062 -2.210938 0.515625 -2.90625 0.515625 -3.71875 C 0.515625 -4.53125 0.664062 -5.21875 0.96875 -5.78125 C 1.28125 -6.351562 1.695312 -6.789062 2.21875 -7.09375 C 2.738281 -7.394531 3.328125 -7.546875 3.984375 -7.546875 C 4.554688 -7.546875 5.070312 -7.4375 5.53125 -7.21875 C 6 -7.007812 6.378906 -6.703125 6.671875 -6.296875 C 6.960938 -5.898438 7.144531 -5.414062 7.21875 -4.84375 Z M 7.21875 -4.84375 "/></g></g></g><g fill="#3d3d3d" fill-opacity="1"><g transform="translate(34.590015, 438.353636)"><g><path d="M 1.9375 0 L 0.25 0 L 2.8125 -7.4375 L 4.84375 -7.4375 L 7.40625 0 L 5.71875 0 L 5.171875 -1.703125 L 2.484375 -1.703125 Z M 2.875 -2.921875 L 4.765625 -2.921875 L 3.859375 -5.75 L 3.796875 -5.75 Z M 2.875 -2.921875 "/></g></g></g><g fill="#3d3d3d" fill-opacity="1"><g transform="translate(42.246216, 438.353636)"><g><path d="M 0.640625 0 L 0.640625 -7.4375 L 3.578125 -7.4375 C 4.148438 -7.4375 4.632812 -7.328125 5.03125 -7.109375 C 5.425781 -6.898438 5.726562 -6.601562 5.9375 -6.21875 C 6.144531 -5.84375 6.25 -5.410156 6.25 -4.921875 C 6.25 -4.421875 6.140625 -3.984375 5.921875 -3.609375 C 5.710938 -3.234375 5.40625 -2.9375 5 -2.71875 C 4.601562 -2.507812 4.117188 -2.40625 3.546875 -2.40625 L 2.21875 -2.40625 L 2.21875 0 Z M 2.21875 -3.671875 L 3.296875 -3.671875 C 3.742188 -3.671875 4.078125 -3.785156 4.296875 -4.015625 C 4.515625 -4.253906 4.625 -4.554688 4.625 -4.921875 C 4.625 -5.296875 4.515625 -5.59375 4.296875 -5.8125 C 4.078125 -6.039062 3.738281 -6.15625 3.28125 -6.15625 L 2.21875 -6.15625 Z M 2.21875 -3.671875 "/></g></g></g><g fill="#3d3d3d" fill-opacity="1"><g transform="translate(48.877231, 438.353636)"><g><path d="M 0.640625 0 L 0.640625 -7.4375 L 5.65625 -7.4375 L 5.65625 -6.140625 L 2.21875 -6.140625 L 2.21875 -4.375 L 5.40625 -4.375 L 5.40625 -3.078125 L 2.21875 -3.078125 L 2.21875 -1.296875 L 5.671875 -1.296875 L 5.671875 0 Z M 0.640625 0 "/></g></g></g><g fill="#3d3d3d" fill-opacity="1"><g transform="translate(55.148341, 438.353636)"><g/></g></g><g fill="#3d3d3d" fill-opacity="1"><g transform="translate(57.522272, 438.353636)"><g><path d="M 0.359375 -6.140625 L 0.359375 -7.4375 L 6.484375 -7.4375 L 6.484375 -6.140625 L 4.203125 -6.140625 L 4.203125 0 L 2.640625 0 L 2.640625 -6.140625 Z M 0.359375 -6.140625 "/></g></g></g><g fill="#3d3d3d" fill-opacity="1"><g transform="translate(64.364138, 438.353636)"><g><path d="M 7.484375 -3.71875 C 7.484375 -2.90625 7.328125 -2.210938 7.015625 -1.640625 C 6.710938 -1.078125 6.296875 -0.644531 5.765625 -0.34375 C 5.242188 -0.0390625 4.65625 0.109375 4 0.109375 C 3.34375 0.109375 2.75 -0.0390625 2.21875 -0.34375 C 1.695312 -0.644531 1.28125 -1.082031 0.96875 -1.65625 C 0.664062 -2.226562 0.515625 -2.914062 0.515625 -3.71875 C 0.515625 -4.53125 0.664062 -5.21875 0.96875 -5.78125 C 1.28125 -6.351562 1.695312 -6.789062 2.21875 -7.09375 C 2.75 -7.394531 3.34375 -7.546875 4 -7.546875 C 4.65625 -7.546875 5.242188 -7.394531 5.765625 -7.09375 C 6.296875 -6.789062 6.710938 -6.351562 7.015625 -5.78125 C 7.328125 -5.21875 7.484375 -4.53125 7.484375 -3.71875 Z M 5.890625 -3.71875 C 5.890625 -4.507812 5.71875 -5.113281 5.375 -5.53125 C 5.03125 -5.945312 4.570312 -6.15625 4 -6.15625 C 3.425781 -6.15625 2.96875 -5.945312 2.625 -5.53125 C 2.28125 -5.113281 2.109375 -4.507812 2.109375 -3.71875 C 2.109375 -2.9375 2.28125 -2.335938 2.625 -1.921875 C 2.96875 -1.503906 3.425781 -1.296875 4 -1.296875 C 4.570312 -1.296875 5.03125 -1.503906 5.375 -1.921875 C 5.71875 -2.335938 5.890625 -2.9375 5.890625 -3.71875 Z M 5.890625 -3.71875 "/></g></g></g><g fill="#3d3d3d" fill-opacity="1"><g transform="translate(72.36934, 438.353636)"><g><path d="M 2.328125 0 L 0.1875 -7.4375 L 1.90625 -7.4375 L 3.140625 -2.265625 L 3.203125 -2.265625 L 4.5625 -7.4375 L 6.03125 -7.4375 L 7.390625 -2.265625 L 7.453125 -2.265625 L 8.6875 -7.4375 L 10.40625 -7.4375 L 8.28125 0 L 6.75 0 L 5.328125 -4.859375 L 5.265625 -4.859375 L 3.859375 0 Z M 2.328125 0 "/></g></g></g><g fill="#3d3d3d" fill-opacity="1"><g transform="translate(82.97387, 438.353636)"><g><path d="M 6.875 -7.4375 L 6.875 0 L 5.515625 0 L 2.28125 -4.6875 L 2.21875 -4.6875 L 2.21875 0 L 0.640625 0 L 0.640625 -7.4375 L 2.03125 -7.4375 L 5.234375 -2.765625 L 5.3125 -2.765625 L 5.3125 -7.4375 Z M 6.875 -7.4375 "/></g></g></g><g fill="#3d3d3d" fill-opacity="1"><g transform="translate(156.619563, 433.530573)"><g><path d="M 4.6875 -5.296875 C 4.65625 -5.597656 4.523438 -5.828125 4.296875 -5.984375 C 4.078125 -6.148438 3.78125 -6.234375 3.40625 -6.234375 C 3.019531 -6.234375 2.722656 -6.148438 2.515625 -5.984375 C 2.316406 -5.828125 2.21875 -5.628906 2.21875 -5.390625 C 2.207031 -5.128906 2.316406 -4.929688 2.546875 -4.796875 C 2.785156 -4.660156 3.066406 -4.550781 3.390625 -4.46875 L 4.0625 -4.3125 C 4.488281 -4.21875 4.867188 -4.078125 5.203125 -3.890625 C 5.546875 -3.703125 5.8125 -3.460938 6 -3.171875 C 6.195312 -2.890625 6.296875 -2.539062 6.296875 -2.125 C 6.296875 -1.445312 6.039062 -0.90625 5.53125 -0.5 C 5.019531 -0.09375 4.3125 0.109375 3.40625 0.109375 C 2.5 0.109375 1.773438 -0.09375 1.234375 -0.5 C 0.703125 -0.914062 0.425781 -1.53125 0.40625 -2.34375 L 1.9375 -2.34375 C 1.957031 -1.96875 2.097656 -1.6875 2.359375 -1.5 C 2.628906 -1.3125 2.972656 -1.21875 3.390625 -1.21875 C 3.785156 -1.21875 4.101562 -1.300781 4.34375 -1.46875 C 4.582031 -1.632812 4.703125 -1.851562 4.703125 -2.125 C 4.703125 -2.375 4.59375 -2.566406 4.375 -2.703125 C 4.15625 -2.847656 3.84375 -2.96875 3.4375 -3.0625 L 2.625 -3.265625 C 2 -3.410156 1.503906 -3.644531 1.140625 -3.96875 C 0.773438 -4.300781 0.597656 -4.742188 0.609375 -5.296875 C 0.597656 -5.742188 0.710938 -6.132812 0.953125 -6.46875 C 1.203125 -6.8125 1.539062 -7.078125 1.96875 -7.265625 C 2.394531 -7.453125 2.878906 -7.546875 3.421875 -7.546875 C 3.972656 -7.546875 4.453125 -7.453125 4.859375 -7.265625 C 5.273438 -7.078125 5.597656 -6.8125 5.828125 -6.46875 C 6.066406 -6.132812 6.1875 -5.742188 6.1875 -5.296875 Z M 4.6875 -5.296875 "/></g></g></g><g fill="#3d3d3d" fill-opacity="1"><g transform="translate(163.323287, 433.530573)"><g><path d="M 0.359375 -6.140625 L 0.359375 -7.4375 L 6.484375 -7.4375 L 6.484375 -6.140625 L 4.203125 -6.140625 L 4.203125 0 L 2.640625 0 L 2.640625 -6.140625 Z M 0.359375 -6.140625 "/></g></g></g><g fill="#3d3d3d" fill-opacity="1"><g transform="translate(170.165153, 433.530573)"><g><path d="M 0.640625 0 L 0.640625 -7.4375 L 5.65625 -7.4375 L 5.65625 -6.140625 L 2.21875 -6.140625 L 2.21875 -4.375 L 5.40625 -4.375 L 5.40625 -3.078125 L 2.21875 -3.078125 L 2.21875 -1.296875 L 5.671875 -1.296875 L 5.671875 0 Z M 0.640625 0 "/></g></g></g><g fill="#3d3d3d" fill-opacity="1"><g transform="translate(176.436264, 433.530573)"><g><path d="M 0.640625 0 L 0.640625 -7.4375 L 2.21875 -7.4375 L 2.21875 -1.296875 L 5.40625 -1.296875 L 5.40625 0 Z M 0.640625 0 "/></g></g></g><g fill="#3d3d3d" fill-opacity="1"><g transform="translate(182.245674, 433.530573)"><g><path d="M 0.640625 0 L 0.640625 -7.4375 L 2.21875 -7.4375 L 2.21875 -1.296875 L 5.40625 -1.296875 L 5.40625 0 Z M 0.640625 0 "/></g></g></g><g fill="#3d3d3d" fill-opacity="1"><g transform="translate(188.055085, 433.530573)"><g><path d="M 0.640625 0 L 0.640625 -7.4375 L 5.65625 -7.4375 L 5.65625 -6.140625 L 2.21875 -6.140625 L 2.21875 -4.375 L 5.40625 -4.375 L 5.40625 -3.078125 L 2.21875 -3.078125 L 2.21875 -1.296875 L 5.671875 -1.296875 L 5.671875 0 Z M 0.640625 0 "/></g></g></g><g fill="#3d3d3d" fill-opacity="1"><g transform="translate(194.326196, 433.530573)"><g><path d="M 6.875 -7.4375 L 6.875 0 L 5.515625 0 L 2.28125 -4.6875 L 2.21875 -4.6875 L 2.21875 0 L 0.640625 0 L 0.640625 -7.4375 L 2.03125 -7.4375 L 5.234375 -2.765625 L 5.3125 -2.765625 L 5.3125 -7.4375 Z M 6.875 -7.4375 "/></g></g></g><g fill="#3d3d3d" fill-opacity="1"><g transform="translate(201.851525, 433.530573)"><g><path d="M 0.640625 0 L 0.640625 -7.4375 L 3.625 -7.4375 C 4.445312 -7.4375 5.0625 -7.257812 5.46875 -6.90625 C 5.882812 -6.550781 6.09375 -6.09375 6.09375 -5.53125 C 6.09375 -5.09375 5.960938 -4.738281 5.703125 -4.46875 C 5.453125 -4.195312 5.132812 -4.019531 4.75 -3.9375 L 4.75 -3.859375 C 5.03125 -3.847656 5.296875 -3.769531 5.546875 -3.625 C 5.796875 -3.476562 6 -3.269531 6.15625 -3 C 6.3125 -2.738281 6.390625 -2.425781 6.390625 -2.0625 C 6.390625 -1.664062 6.289062 -1.3125 6.09375 -1 C 5.894531 -0.6875 5.601562 -0.441406 5.21875 -0.265625 C 4.84375 -0.0859375 4.378906 0 3.828125 0 Z M 2.21875 -1.28125 L 3.5 -1.28125 C 3.945312 -1.28125 4.269531 -1.363281 4.46875 -1.53125 C 4.664062 -1.707031 4.765625 -1.9375 4.765625 -2.21875 C 4.765625 -2.519531 4.65625 -2.769531 4.4375 -2.96875 C 4.21875 -3.164062 3.921875 -3.265625 3.546875 -3.265625 L 2.21875 -3.265625 Z M 2.21875 -4.328125 L 3.390625 -4.328125 C 3.710938 -4.328125 3.976562 -4.410156 4.1875 -4.578125 C 4.40625 -4.742188 4.515625 -4.976562 4.515625 -5.28125 C 4.515625 -5.539062 4.414062 -5.753906 4.21875 -5.921875 C 4.03125 -6.085938 3.765625 -6.171875 3.421875 -6.171875 L 2.21875 -6.171875 Z M 2.21875 -4.328125 "/></g></g></g><g fill="#3d3d3d" fill-opacity="1"><g transform="translate(208.617046, 433.530573)"><g><path d="M 7.484375 -3.71875 C 7.484375 -2.90625 7.328125 -2.210938 7.015625 -1.640625 C 6.710938 -1.078125 6.296875 -0.644531 5.765625 -0.34375 C 5.242188 -0.0390625 4.65625 0.109375 4 0.109375 C 3.34375 0.109375 2.75 -0.0390625 2.21875 -0.34375 C 1.695312 -0.644531 1.28125 -1.082031 0.96875 -1.65625 C 0.664062 -2.226562 0.515625 -2.914062 0.515625 -3.71875 C 0.515625 -4.53125 0.664062 -5.21875 0.96875 -5.78125 C 1.28125 -6.351562 1.695312 -6.789062 2.21875 -7.09375 C 2.75 -7.394531 3.34375 -7.546875 4 -7.546875 C 4.65625 -7.546875 5.242188 -7.394531 5.765625 -7.09375 C 6.296875 -6.789062 6.710938 -6.351562 7.015625 -5.78125 C 7.328125 -5.21875 7.484375 -4.53125 7.484375 -3.71875 Z M 5.890625 -3.71875 C 5.890625 -4.507812 5.71875 -5.113281 5.375 -5.53125 C 5.03125 -5.945312 4.570312 -6.15625 4 -6.15625 C 3.425781 -6.15625 2.96875 -5.945312 2.625 -5.53125 C 2.28125 -5.113281 2.109375 -4.507812 2.109375 -3.71875 C 2.109375 -2.9375 2.28125 -2.335938 2.625 -1.921875 C 2.96875 -1.503906 3.425781 -1.296875 4 -1.296875 C 4.570312 -1.296875 5.03125 -1.503906 5.375 -1.921875 C 5.71875 -2.335938 5.890625 -2.9375 5.890625 -3.71875 Z M 5.890625 -3.71875 "/></g></g></g><g fill="#3d3d3d" fill-opacity="1"><g transform="translate(216.622248, 433.530573)"><g><path d="M 4.6875 -5.296875 C 4.65625 -5.597656 4.523438 -5.828125 4.296875 -5.984375 C 4.078125 -6.148438 3.78125 -6.234375 3.40625 -6.234375 C 3.019531 -6.234375 2.722656 -6.148438 2.515625 -5.984375 C 2.316406 -5.828125 2.21875 -5.628906 2.21875 -5.390625 C 2.207031 -5.128906 2.316406 -4.929688 2.546875 -4.796875 C 2.785156 -4.660156 3.066406 -4.550781 3.390625 -4.46875 L 4.0625 -4.3125 C 4.488281 -4.21875 4.867188 -4.078125 5.203125 -3.890625 C 5.546875 -3.703125 5.8125 -3.460938 6 -3.171875 C 6.195312 -2.890625 6.296875 -2.539062 6.296875 -2.125 C 6.296875 -1.445312 6.039062 -0.90625 5.53125 -0.5 C 5.019531 -0.09375 4.3125 0.109375 3.40625 0.109375 C 2.5 0.109375 1.773438 -0.09375 1.234375 -0.5 C 0.703125 -0.914062 0.425781 -1.53125 0.40625 -2.34375 L 1.9375 -2.34375 C 1.957031 -1.96875 2.097656 -1.6875 2.359375 -1.5 C 2.628906 -1.3125 2.972656 -1.21875 3.390625 -1.21875 C 3.785156 -1.21875 4.101562 -1.300781 4.34375 -1.46875 C 4.582031 -1.632812 4.703125 -1.851562 4.703125 -2.125 C 4.703125 -2.375 4.59375 -2.566406 4.375 -2.703125 C 4.15625 -2.847656 3.84375 -2.96875 3.4375 -3.0625 L 2.625 -3.265625 C 2 -3.410156 1.503906 -3.644531 1.140625 -3.96875 C 0.773438 -4.300781 0.597656 -4.742188 0.609375 -5.296875 C 0.597656 -5.742188 0.710938 -6.132812 0.953125 -6.46875 C 1.203125 -6.8125 1.539062 -7.078125 1.96875 -7.265625 C 2.394531 -7.453125 2.878906 -7.546875 3.421875 -7.546875 C 3.972656 -7.546875 4.453125 -7.453125 4.859375 -7.265625 C 5.273438 -7.078125 5.597656 -6.8125 5.828125 -6.46875 C 6.066406 -6.132812 6.1875 -5.742188 6.1875 -5.296875 Z M 4.6875 -5.296875 "/></g></g></g><g fill="#3d3d3d" fill-opacity="1"><g transform="translate(223.325973, 433.530573)"><g><path d="M 7.21875 -4.84375 L 5.625 -4.84375 C 5.5625 -5.25 5.382812 -5.566406 5.09375 -5.796875 C 4.8125 -6.035156 4.453125 -6.15625 4.015625 -6.15625 C 3.441406 -6.15625 2.976562 -5.941406 2.625 -5.515625 C 2.28125 -5.097656 2.109375 -4.5 2.109375 -3.71875 C 2.109375 -2.925781 2.28125 -2.320312 2.625 -1.90625 C 2.976562 -1.5 3.441406 -1.296875 4.015625 -1.296875 C 4.429688 -1.296875 4.785156 -1.40625 5.078125 -1.625 C 5.367188 -1.84375 5.550781 -2.148438 5.625 -2.546875 L 7.21875 -2.53125 C 7.15625 -2.082031 6.988281 -1.65625 6.71875 -1.25 C 6.457031 -0.84375 6.09375 -0.515625 5.625 -0.265625 C 5.164062 -0.015625 4.617188 0.109375 3.984375 0.109375 C 3.316406 0.109375 2.722656 -0.0390625 2.203125 -0.34375 C 1.679688 -0.644531 1.269531 -1.078125 0.96875 -1.640625 C 0.664062 -2.210938 0.515625 -2.90625 0.515625 -3.71875 C 0.515625 -4.53125 0.664062 -5.21875 0.96875 -5.78125 C 1.28125 -6.351562 1.695312 -6.789062 2.21875 -7.09375 C 2.738281 -7.394531 3.328125 -7.546875 3.984375 -7.546875 C 4.554688 -7.546875 5.070312 -7.4375 5.53125 -7.21875 C 6 -7.007812 6.378906 -6.703125 6.671875 -6.296875 C 6.960938 -5.898438 7.144531 -5.414062 7.21875 -4.84375 Z M 7.21875 -4.84375 "/></g></g></g><g fill="#3d3d3d" fill-opacity="1"><g transform="translate(231.025807, 433.530573)"><g><path d="M 0.640625 0 L 0.640625 -7.4375 L 2.21875 -7.4375 L 2.21875 -4.375 L 5.421875 -4.375 L 5.421875 -7.4375 L 6.984375 -7.4375 L 6.984375 0 L 5.421875 0 L 5.421875 -3.078125 L 2.21875 -3.078125 L 2.21875 0 Z M 0.640625 0 "/></g></g></g><g fill="#3d3d3d" fill-opacity="1"><g transform="translate(240.864218, 477.683682)"><g><path d="M 7.21875 -4.84375 L 5.625 -4.84375 C 5.5625 -5.25 5.382812 -5.566406 5.09375 -5.796875 C 4.8125 -6.035156 4.453125 -6.15625 4.015625 -6.15625 C 3.441406 -6.15625 2.976562 -5.941406 2.625 -5.515625 C 2.28125 -5.097656 2.109375 -4.5 2.109375 -3.71875 C 2.109375 -2.925781 2.28125 -2.320312 2.625 -1.90625 C 2.976562 -1.5 3.441406 -1.296875 4.015625 -1.296875 C 4.429688 -1.296875 4.785156 -1.40625 5.078125 -1.625 C 5.367188 -1.84375 5.550781 -2.148438 5.625 -2.546875 L 7.21875 -2.53125 C 7.15625 -2.082031 6.988281 -1.65625 6.71875 -1.25 C 6.457031 -0.84375 6.09375 -0.515625 5.625 -0.265625 C 5.164062 -0.015625 4.617188 0.109375 3.984375 0.109375 C 3.316406 0.109375 2.722656 -0.0390625 2.203125 -0.34375 C 1.679688 -0.644531 1.269531 -1.078125 0.96875 -1.640625 C 0.664062 -2.210938 0.515625 -2.90625 0.515625 -3.71875 C 0.515625 -4.53125 0.664062 -5.21875 0.96875 -5.78125 C 1.28125 -6.351562 1.695312 -6.789062 2.21875 -7.09375 C 2.738281 -7.394531 3.328125 -7.546875 3.984375 -7.546875 C 4.554688 -7.546875 5.070312 -7.4375 5.53125 -7.21875 C 6 -7.007812 6.378906 -6.703125 6.671875 -6.296875 C 6.960938 -5.898438 7.144531 -5.414062 7.21875 -4.84375 Z M 7.21875 -4.84375 "/></g></g></g><g fill="#3d3d3d" fill-opacity="1"><g transform="translate(248.564052, 477.683682)"><g><path d="M 1.9375 0 L 0.25 0 L 2.8125 -7.4375 L 4.84375 -7.4375 L 7.40625 0 L 5.71875 0 L 5.171875 -1.703125 L 2.484375 -1.703125 Z M 2.875 -2.921875 L 4.765625 -2.921875 L 3.859375 -5.75 L 3.796875 -5.75 Z M 2.875 -2.921875 "/></g></g></g><g fill="#3d3d3d" fill-opacity="1"><g transform="translate(256.220253, 477.683682)"><g><path d="M 0.640625 0 L 0.640625 -7.4375 L 2.21875 -7.4375 L 2.21875 -1.296875 L 5.40625 -1.296875 L 5.40625 0 Z M 0.640625 0 "/></g></g></g><g fill="#3d3d3d" fill-opacity="1"><g transform="translate(262.029664, 477.683682)"><g><path d="M 0.640625 0 L 0.640625 -7.4375 L 5.65625 -7.4375 L 5.65625 -6.140625 L 2.21875 -6.140625 L 2.21875 -4.375 L 5.40625 -4.375 L 5.40625 -3.078125 L 2.21875 -3.078125 L 2.21875 -1.296875 L 5.671875 -1.296875 L 5.671875 0 Z M 0.640625 0 "/></g></g></g><g fill="#3d3d3d" fill-opacity="1"><g transform="translate(268.300774, 477.683682)"><g><path d="M 3.28125 0 L 0.640625 0 L 0.640625 -7.4375 L 3.3125 -7.4375 C 4.0625 -7.4375 4.707031 -7.285156 5.25 -6.984375 C 5.789062 -6.691406 6.203125 -6.269531 6.484375 -5.71875 C 6.773438 -5.164062 6.921875 -4.503906 6.921875 -3.734375 C 6.921875 -2.953125 6.773438 -2.28125 6.484375 -1.71875 C 6.191406 -1.164062 5.773438 -0.738281 5.234375 -0.4375 C 4.691406 -0.144531 4.039062 0 3.28125 0 Z M 2.21875 -1.34375 L 3.21875 -1.34375 C 3.914062 -1.34375 4.445312 -1.53125 4.8125 -1.90625 C 5.175781 -2.289062 5.359375 -2.898438 5.359375 -3.734375 C 5.359375 -4.554688 5.175781 -5.15625 4.8125 -5.53125 C 4.445312 -5.90625 3.914062 -6.09375 3.21875 -6.09375 L 2.21875 -6.09375 Z M 2.21875 -1.34375 "/></g></g></g><g fill="#3d3d3d" fill-opacity="1"><g transform="translate(275.746124, 477.683682)"><g><path d="M 7.484375 -3.71875 C 7.484375 -2.90625 7.328125 -2.210938 7.015625 -1.640625 C 6.710938 -1.078125 6.296875 -0.644531 5.765625 -0.34375 C 5.242188 -0.0390625 4.65625 0.109375 4 0.109375 C 3.34375 0.109375 2.75 -0.0390625 2.21875 -0.34375 C 1.695312 -0.644531 1.28125 -1.082031 0.96875 -1.65625 C 0.664062 -2.226562 0.515625 -2.914062 0.515625 -3.71875 C 0.515625 -4.53125 0.664062 -5.21875 0.96875 -5.78125 C 1.28125 -6.351562 1.695312 -6.789062 2.21875 -7.09375 C 2.75 -7.394531 3.34375 -7.546875 4 -7.546875 C 4.65625 -7.546875 5.242188 -7.394531 5.765625 -7.09375 C 6.296875 -6.789062 6.710938 -6.351562 7.015625 -5.78125 C 7.328125 -5.21875 7.484375 -4.53125 7.484375 -3.71875 Z M 5.890625 -3.71875 C 5.890625 -4.507812 5.71875 -5.113281 5.375 -5.53125 C 5.03125 -5.945312 4.570312 -6.15625 4 -6.15625 C 3.425781 -6.15625 2.96875 -5.945312 2.625 -5.53125 C 2.28125 -5.113281 2.109375 -4.507812 2.109375 -3.71875 C 2.109375 -2.9375 2.28125 -2.335938 2.625 -1.921875 C 2.96875 -1.503906 3.425781 -1.296875 4 -1.296875 C 4.570312 -1.296875 5.03125 -1.503906 5.375 -1.921875 C 5.71875 -2.335938 5.890625 -2.9375 5.890625 -3.71875 Z M 5.890625 -3.71875 "/></g></g></g><g fill="#3d3d3d" fill-opacity="1"><g transform="translate(283.751326, 477.683682)"><g><path d="M 6.875 -7.4375 L 6.875 0 L 5.515625 0 L 2.28125 -4.6875 L 2.21875 -4.6875 L 2.21875 0 L 0.640625 0 L 0.640625 -7.4375 L 2.03125 -7.4375 L 5.234375 -2.765625 L 5.3125 -2.765625 L 5.3125 -7.4375 Z M 6.875 -7.4375 "/></g></g></g><g fill="#3d3d3d" fill-opacity="1"><g transform="translate(335.362476, 524.305043)"><g><path d="M 0.640625 0 L 0.640625 -7.4375 L 3.625 -7.4375 C 4.445312 -7.4375 5.0625 -7.257812 5.46875 -6.90625 C 5.882812 -6.550781 6.09375 -6.09375 6.09375 -5.53125 C 6.09375 -5.09375 5.960938 -4.738281 5.703125 -4.46875 C 5.453125 -4.195312 5.132812 -4.019531 4.75 -3.9375 L 4.75 -3.859375 C 5.03125 -3.847656 5.296875 -3.769531 5.546875 -3.625 C 5.796875 -3.476562 6 -3.269531 6.15625 -3 C 6.3125 -2.738281 6.390625 -2.425781 6.390625 -2.0625 C 6.390625 -1.664062 6.289062 -1.3125 6.09375 -1 C 5.894531 -0.6875 5.601562 -0.441406 5.21875 -0.265625 C 4.84375 -0.0859375 4.378906 0 3.828125 0 Z M 2.21875 -1.28125 L 3.5 -1.28125 C 3.945312 -1.28125 4.269531 -1.363281 4.46875 -1.53125 C 4.664062 -1.707031 4.765625 -1.9375 4.765625 -2.21875 C 4.765625 -2.519531 4.65625 -2.769531 4.4375 -2.96875 C 4.21875 -3.164062 3.921875 -3.265625 3.546875 -3.265625 L 2.21875 -3.265625 Z M 2.21875 -4.328125 L 3.390625 -4.328125 C 3.710938 -4.328125 3.976562 -4.410156 4.1875 -4.578125 C 4.40625 -4.742188 4.515625 -4.976562 4.515625 -5.28125 C 4.515625 -5.539062 4.414062 -5.753906 4.21875 -5.921875 C 4.03125 -6.085938 3.765625 -6.171875 3.421875 -6.171875 L 2.21875 -6.171875 Z M 2.21875 -4.328125 "/></g></g></g><g fill="#3d3d3d" fill-opacity="1"><g transform="translate(342.127998, 524.305043)"><g><path d="M 0.640625 0 L 0.640625 -7.4375 L 3.578125 -7.4375 C 4.429688 -7.4375 5.085938 -7.21875 5.546875 -6.78125 C 6.015625 -6.34375 6.25 -5.753906 6.25 -5.015625 C 6.25 -4.503906 6.132812 -4.066406 5.90625 -3.703125 C 5.6875 -3.347656 5.363281 -3.078125 4.9375 -2.890625 L 6.515625 0 L 4.78125 0 L 3.375 -2.640625 L 2.21875 -2.640625 L 2.21875 0 Z M 2.21875 -3.90625 L 3.296875 -3.90625 C 4.179688 -3.90625 4.625 -4.273438 4.625 -5.015625 C 4.625 -5.773438 4.175781 -6.15625 3.28125 -6.15625 L 2.21875 -6.15625 Z M 2.21875 -3.90625 "/></g></g></g><g fill="#3d3d3d" fill-opacity="1"><g transform="translate(348.846261, 524.305043)"><g><path d="M 0.640625 0 L 0.640625 -7.4375 L 5.65625 -7.4375 L 5.65625 -6.140625 L 2.21875 -6.140625 L 2.21875 -4.375 L 5.40625 -4.375 L 5.40625 -3.078125 L 2.21875 -3.078125 L 2.21875 -1.296875 L 5.671875 -1.296875 L 5.671875 0 Z M 0.640625 0 "/></g></g></g><g fill="#3d3d3d" fill-opacity="1"><g transform="translate(355.117371, 524.305043)"><g><path d="M 3.28125 0 L 0.640625 0 L 0.640625 -7.4375 L 3.3125 -7.4375 C 4.0625 -7.4375 4.707031 -7.285156 5.25 -6.984375 C 5.789062 -6.691406 6.203125 -6.269531 6.484375 -5.71875 C 6.773438 -5.164062 6.921875 -4.503906 6.921875 -3.734375 C 6.921875 -2.953125 6.773438 -2.28125 6.484375 -1.71875 C 6.191406 -1.164062 5.773438 -0.738281 5.234375 -0.4375 C 4.691406 -0.144531 4.039062 0 3.28125 0 Z M 2.21875 -1.34375 L 3.21875 -1.34375 C 3.914062 -1.34375 4.445312 -1.53125 4.8125 -1.90625 C 5.175781 -2.289062 5.359375 -2.898438 5.359375 -3.734375 C 5.359375 -4.554688 5.175781 -5.15625 4.8125 -5.53125 C 4.445312 -5.90625 3.914062 -6.09375 3.21875 -6.09375 L 2.21875 -6.09375 Z M 2.21875 -1.34375 "/></g></g></g><g fill="#3d3d3d" fill-opacity="1"><g transform="translate(362.562722, 524.305043)"><g><path d="M 1.9375 0 L 0.25 0 L 2.8125 -7.4375 L 4.84375 -7.4375 L 7.40625 0 L 5.71875 0 L 5.171875 -1.703125 L 2.484375 -1.703125 Z M 2.875 -2.921875 L 4.765625 -2.921875 L 3.859375 -5.75 L 3.796875 -5.75 Z M 2.875 -2.921875 "/></g></g></g><g fill="#3d3d3d" fill-opacity="1"><g transform="translate(370.218923, 524.305043)"><g><path d="M 4.6875 -5.296875 C 4.65625 -5.597656 4.523438 -5.828125 4.296875 -5.984375 C 4.078125 -6.148438 3.78125 -6.234375 3.40625 -6.234375 C 3.019531 -6.234375 2.722656 -6.148438 2.515625 -5.984375 C 2.316406 -5.828125 2.21875 -5.628906 2.21875 -5.390625 C 2.207031 -5.128906 2.316406 -4.929688 2.546875 -4.796875 C 2.785156 -4.660156 3.066406 -4.550781 3.390625 -4.46875 L 4.0625 -4.3125 C 4.488281 -4.21875 4.867188 -4.078125 5.203125 -3.890625 C 5.546875 -3.703125 5.8125 -3.460938 6 -3.171875 C 6.195312 -2.890625 6.296875 -2.539062 6.296875 -2.125 C 6.296875 -1.445312 6.039062 -0.90625 5.53125 -0.5 C 5.019531 -0.09375 4.3125 0.109375 3.40625 0.109375 C 2.5 0.109375 1.773438 -0.09375 1.234375 -0.5 C 0.703125 -0.914062 0.425781 -1.53125 0.40625 -2.34375 L 1.9375 -2.34375 C 1.957031 -1.96875 2.097656 -1.6875 2.359375 -1.5 C 2.628906 -1.3125 2.972656 -1.21875 3.390625 -1.21875 C 3.785156 -1.21875 4.101562 -1.300781 4.34375 -1.46875 C 4.582031 -1.632812 4.703125 -1.851562 4.703125 -2.125 C 4.703125 -2.375 4.59375 -2.566406 4.375 -2.703125 C 4.15625 -2.847656 3.84375 -2.96875 3.4375 -3.0625 L 2.625 -3.265625 C 2 -3.410156 1.503906 -3.644531 1.140625 -3.96875 C 0.773438 -4.300781 0.597656 -4.742188 0.609375 -5.296875 C 0.597656 -5.742188 0.710938 -6.132812 0.953125 -6.46875 C 1.203125 -6.8125 1.539062 -7.078125 1.96875 -7.265625 C 2.394531 -7.453125 2.878906 -7.546875 3.421875 -7.546875 C 3.972656 -7.546875 4.453125 -7.453125 4.859375 -7.265625 C 5.273438 -7.078125 5.597656 -6.8125 5.828125 -6.46875 C 6.066406 -6.132812 6.1875 -5.742188 6.1875 -5.296875 Z M 4.6875 -5.296875 "/></g></g></g><g fill="#3d3d3d" fill-opacity="1"><g transform="translate(376.922647, 524.305043)"><g><path d="M 3.28125 0 L 0.640625 0 L 0.640625 -7.4375 L 3.3125 -7.4375 C 4.0625 -7.4375 4.707031 -7.285156 5.25 -6.984375 C 5.789062 -6.691406 6.203125 -6.269531 6.484375 -5.71875 C 6.773438 -5.164062 6.921875 -4.503906 6.921875 -3.734375 C 6.921875 -2.953125 6.773438 -2.28125 6.484375 -1.71875 C 6.191406 -1.164062 5.773438 -0.738281 5.234375 -0.4375 C 4.691406 -0.144531 4.039062 0 3.28125 0 Z M 2.21875 -1.34375 L 3.21875 -1.34375 C 3.914062 -1.34375 4.445312 -1.53125 4.8125 -1.90625 C 5.175781 -2.289062 5.359375 -2.898438 5.359375 -3.734375 C 5.359375 -4.554688 5.175781 -5.15625 4.8125 -5.53125 C 4.445312 -5.90625 3.914062 -6.09375 3.21875 -6.09375 L 2.21875 -6.09375 Z M 2.21875 -1.34375 "/></g></g></g><g fill="#3d3d3d" fill-opacity="1"><g transform="translate(384.367998, 524.305043)"><g><path d="M 7.484375 -3.71875 C 7.484375 -2.90625 7.328125 -2.210938 7.015625 -1.640625 C 6.710938 -1.078125 6.296875 -0.644531 5.765625 -0.34375 C 5.242188 -0.0390625 4.65625 0.109375 4 0.109375 C 3.34375 0.109375 2.75 -0.0390625 2.21875 -0.34375 C 1.695312 -0.644531 1.28125 -1.082031 0.96875 -1.65625 C 0.664062 -2.226562 0.515625 -2.914062 0.515625 -3.71875 C 0.515625 -4.53125 0.664062 -5.21875 0.96875 -5.78125 C 1.28125 -6.351562 1.695312 -6.789062 2.21875 -7.09375 C 2.75 -7.394531 3.34375 -7.546875 4 -7.546875 C 4.65625 -7.546875 5.242188 -7.394531 5.765625 -7.09375 C 6.296875 -6.789062 6.710938 -6.351562 7.015625 -5.78125 C 7.328125 -5.21875 7.484375 -4.53125 7.484375 -3.71875 Z M 5.890625 -3.71875 C 5.890625 -4.507812 5.71875 -5.113281 5.375 -5.53125 C 5.03125 -5.945312 4.570312 -6.15625 4 -6.15625 C 3.425781 -6.15625 2.96875 -5.945312 2.625 -5.53125 C 2.28125 -5.113281 2.109375 -4.507812 2.109375 -3.71875 C 2.109375 -2.9375 2.28125 -2.335938 2.625 -1.921875 C 2.96875 -1.503906 3.425781 -1.296875 4 -1.296875 C 4.570312 -1.296875 5.03125 -1.503906 5.375 -1.921875 C 5.71875 -2.335938 5.890625 -2.9375 5.890625 -3.71875 Z M 5.890625 -3.71875 "/></g></g></g><g fill="#3d3d3d" fill-opacity="1"><g transform="translate(392.373199, 524.305043)"><g><path d="M 0.640625 0 L 0.640625 -7.4375 L 3.578125 -7.4375 C 4.429688 -7.4375 5.085938 -7.21875 5.546875 -6.78125 C 6.015625 -6.34375 6.25 -5.753906 6.25 -5.015625 C 6.25 -4.503906 6.132812 -4.066406 5.90625 -3.703125 C 5.6875 -3.347656 5.363281 -3.078125 4.9375 -2.890625 L 6.515625 0 L 4.78125 0 L 3.375 -2.640625 L 2.21875 -2.640625 L 2.21875 0 Z M 2.21875 -3.90625 L 3.296875 -3.90625 C 4.179688 -3.90625 4.625 -4.273438 4.625 -5.015625 C 4.625 -5.773438 4.175781 -6.15625 3.28125 -6.15625 L 2.21875 -6.15625 Z M 2.21875 -3.90625 "/></g></g></g><g fill="#3d3d3d" fill-opacity="1"><g transform="translate(399.091463, 524.305043)"><g><path d="M 0.640625 0 L 0.640625 -7.4375 L 3.578125 -7.4375 C 4.148438 -7.4375 4.632812 -7.328125 5.03125 -7.109375 C 5.425781 -6.898438 5.726562 -6.601562 5.9375 -6.21875 C 6.144531 -5.84375 6.25 -5.410156 6.25 -4.921875 C 6.25 -4.421875 6.140625 -3.984375 5.921875 -3.609375 C 5.710938 -3.234375 5.40625 -2.9375 5 -2.71875 C 4.601562 -2.507812 4.117188 -2.40625 3.546875 -2.40625 L 2.21875 -2.40625 L 2.21875 0 Z M 2.21875 -3.671875 L 3.296875 -3.671875 C 3.742188 -3.671875 4.078125 -3.785156 4.296875 -4.015625 C 4.515625 -4.253906 4.625 -4.554688 4.625 -4.921875 C 4.625 -5.296875 4.515625 -5.59375 4.296875 -5.8125 C 4.078125 -6.039062 3.738281 -6.15625 3.28125 -6.15625 L 2.21875 -6.15625 Z M 2.21875 -3.671875 "/></g></g></g><g fill="#3d3d3d" fill-opacity="1"><g transform="translate(242.167106, 411.758267)"><g><path d="M 0.640625 0 L 0.640625 -7.4375 L 3.578125 -7.4375 C 4.429688 -7.4375 5.085938 -7.21875 5.546875 -6.78125 C 6.015625 -6.34375 6.25 -5.753906 6.25 -5.015625 C 6.25 -4.503906 6.132812 -4.066406 5.90625 -3.703125 C 5.6875 -3.347656 5.363281 -3.078125 4.9375 -2.890625 L 6.515625 0 L 4.78125 0 L 3.375 -2.640625 L 2.21875 -2.640625 L 2.21875 0 Z M 2.21875 -3.90625 L 3.296875 -3.90625 C 4.179688 -3.90625 4.625 -4.273438 4.625 -5.015625 C 4.625 -5.773438 4.175781 -6.15625 3.28125 -6.15625 L 2.21875 -6.15625 Z M 2.21875 -3.90625 "/></g></g></g><g fill="#3d3d3d" fill-opacity="1"><g transform="translate(248.885369, 411.758267)"><g><path d="M 7.484375 -3.71875 C 7.484375 -2.90625 7.328125 -2.210938 7.015625 -1.640625 C 6.710938 -1.078125 6.296875 -0.644531 5.765625 -0.34375 C 5.242188 -0.0390625 4.65625 0.109375 4 0.109375 C 3.34375 0.109375 2.75 -0.0390625 2.21875 -0.34375 C 1.695312 -0.644531 1.28125 -1.082031 0.96875 -1.65625 C 0.664062 -2.226562 0.515625 -2.914062 0.515625 -3.71875 C 0.515625 -4.53125 0.664062 -5.21875 0.96875 -5.78125 C 1.28125 -6.351562 1.695312 -6.789062 2.21875 -7.09375 C 2.75 -7.394531 3.34375 -7.546875 4 -7.546875 C 4.65625 -7.546875 5.242188 -7.394531 5.765625 -7.09375 C 6.296875 -6.789062 6.710938 -6.351562 7.015625 -5.78125 C 7.328125 -5.21875 7.484375 -4.53125 7.484375 -3.71875 Z M 5.890625 -3.71875 C 5.890625 -4.507812 5.71875 -5.113281 5.375 -5.53125 C 5.03125 -5.945312 4.570312 -6.15625 4 -6.15625 C 3.425781 -6.15625 2.96875 -5.945312 2.625 -5.53125 C 2.28125 -5.113281 2.109375 -4.507812 2.109375 -3.71875 C 2.109375 -2.9375 2.28125 -2.335938 2.625 -1.921875 C 2.96875 -1.503906 3.425781 -1.296875 4 -1.296875 C 4.570312 -1.296875 5.03125 -1.503906 5.375 -1.921875 C 5.71875 -2.335938 5.890625 -2.9375 5.890625 -3.71875 Z M 5.890625 -3.71875 "/></g></g></g><g fill="#3d3d3d" fill-opacity="1"><g transform="translate(256.890571, 411.758267)"><g><path d="M 0.640625 0 L 0.640625 -7.4375 L 3.625 -7.4375 C 4.445312 -7.4375 5.0625 -7.257812 5.46875 -6.90625 C 5.882812 -6.550781 6.09375 -6.09375 6.09375 -5.53125 C 6.09375 -5.09375 5.960938 -4.738281 5.703125 -4.46875 C 5.453125 -4.195312 5.132812 -4.019531 4.75 -3.9375 L 4.75 -3.859375 C 5.03125 -3.847656 5.296875 -3.769531 5.546875 -3.625 C 5.796875 -3.476562 6 -3.269531 6.15625 -3 C 6.3125 -2.738281 6.390625 -2.425781 6.390625 -2.0625 C 6.390625 -1.664062 6.289062 -1.3125 6.09375 -1 C 5.894531 -0.6875 5.601562 -0.441406 5.21875 -0.265625 C 4.84375 -0.0859375 4.378906 0 3.828125 0 Z M 2.21875 -1.28125 L 3.5 -1.28125 C 3.945312 -1.28125 4.269531 -1.363281 4.46875 -1.53125 C 4.664062 -1.707031 4.765625 -1.9375 4.765625 -2.21875 C 4.765625 -2.519531 4.65625 -2.769531 4.4375 -2.96875 C 4.21875 -3.164062 3.921875 -3.265625 3.546875 -3.265625 L 2.21875 -3.265625 Z M 2.21875 -4.328125 L 3.390625 -4.328125 C 3.710938 -4.328125 3.976562 -4.410156 4.1875 -4.578125 C 4.40625 -4.742188 4.515625 -4.976562 4.515625 -5.28125 C 4.515625 -5.539062 4.414062 -5.753906 4.21875 -5.921875 C 4.03125 -6.085938 3.765625 -6.171875 3.421875 -6.171875 L 2.21875 -6.171875 Z M 2.21875 -4.328125 "/></g></g></g><g fill="#3d3d3d" fill-opacity="1"><g transform="translate(263.656092, 411.758267)"><g><path d="M 0.640625 0 L 0.640625 -7.4375 L 5.65625 -7.4375 L 5.65625 -6.140625 L 2.21875 -6.140625 L 2.21875 -4.375 L 5.40625 -4.375 L 5.40625 -3.078125 L 2.21875 -3.078125 L 2.21875 -1.296875 L 5.671875 -1.296875 L 5.671875 0 Z M 0.640625 0 "/></g></g></g><g fill="#3d3d3d" fill-opacity="1"><g transform="translate(269.927203, 411.758267)"><g><path d="M 0.640625 0 L 0.640625 -7.4375 L 3.578125 -7.4375 C 4.429688 -7.4375 5.085938 -7.21875 5.546875 -6.78125 C 6.015625 -6.34375 6.25 -5.753906 6.25 -5.015625 C 6.25 -4.503906 6.132812 -4.066406 5.90625 -3.703125 C 5.6875 -3.347656 5.363281 -3.078125 4.9375 -2.890625 L 6.515625 0 L 4.78125 0 L 3.375 -2.640625 L 2.21875 -2.640625 L 2.21875 0 Z M 2.21875 -3.90625 L 3.296875 -3.90625 C 4.179688 -3.90625 4.625 -4.273438 4.625 -5.015625 C 4.625 -5.773438 4.175781 -6.15625 3.28125 -6.15625 L 2.21875 -6.15625 Z M 2.21875 -3.90625 "/></g></g></g><g fill="#3d3d3d" fill-opacity="1"><g transform="translate(276.645466, 411.758267)"><g><path d="M 0.359375 -6.140625 L 0.359375 -7.4375 L 6.484375 -7.4375 L 6.484375 -6.140625 L 4.203125 -6.140625 L 4.203125 0 L 2.640625 0 L 2.640625 -6.140625 Z M 0.359375 -6.140625 "/></g></g></g><g fill="#3d3d3d" fill-opacity="1"><g transform="translate(283.487332, 411.758267)"><g><path d="M 4.6875 -5.296875 C 4.65625 -5.597656 4.523438 -5.828125 4.296875 -5.984375 C 4.078125 -6.148438 3.78125 -6.234375 3.40625 -6.234375 C 3.019531 -6.234375 2.722656 -6.148438 2.515625 -5.984375 C 2.316406 -5.828125 2.21875 -5.628906 2.21875 -5.390625 C 2.207031 -5.128906 2.316406 -4.929688 2.546875 -4.796875 C 2.785156 -4.660156 3.066406 -4.550781 3.390625 -4.46875 L 4.0625 -4.3125 C 4.488281 -4.21875 4.867188 -4.078125 5.203125 -3.890625 C 5.546875 -3.703125 5.8125 -3.460938 6 -3.171875 C 6.195312 -2.890625 6.296875 -2.539062 6.296875 -2.125 C 6.296875 -1.445312 6.039062 -0.90625 5.53125 -0.5 C 5.019531 -0.09375 4.3125 0.109375 3.40625 0.109375 C 2.5 0.109375 1.773438 -0.09375 1.234375 -0.5 C 0.703125 -0.914062 0.425781 -1.53125 0.40625 -2.34375 L 1.9375 -2.34375 C 1.957031 -1.96875 2.097656 -1.6875 2.359375 -1.5 C 2.628906 -1.3125 2.972656 -1.21875 3.390625 -1.21875 C 3.785156 -1.21875 4.101562 -1.300781 4.34375 -1.46875 C 4.582031 -1.632812 4.703125 -1.851562 4.703125 -2.125 C 4.703125 -2.375 4.59375 -2.566406 4.375 -2.703125 C 4.15625 -2.847656 3.84375 -2.96875 3.4375 -3.0625 L 2.625 -3.265625 C 2 -3.410156 1.503906 -3.644531 1.140625 -3.96875 C 0.773438 -4.300781 0.597656 -4.742188 0.609375 -5.296875 C 0.597656 -5.742188 0.710938 -6.132812 0.953125 -6.46875 C 1.203125 -6.8125 1.539062 -7.078125 1.96875 -7.265625 C 2.394531 -7.453125 2.878906 -7.546875 3.421875 -7.546875 C 3.972656 -7.546875 4.453125 -7.453125 4.859375 -7.265625 C 5.273438 -7.078125 5.597656 -6.8125 5.828125 -6.46875 C 6.066406 -6.132812 6.1875 -5.742188 6.1875 -5.296875 Z M 4.6875 -5.296875 "/></g></g></g><g fill="#3d3d3d" fill-opacity="1"><g transform="translate(290.191057, 411.758267)"><g><path d="M 7.484375 -3.71875 C 7.484375 -2.90625 7.328125 -2.210938 7.015625 -1.640625 C 6.710938 -1.078125 6.296875 -0.644531 5.765625 -0.34375 C 5.242188 -0.0390625 4.65625 0.109375 4 0.109375 C 3.34375 0.109375 2.75 -0.0390625 2.21875 -0.34375 C 1.695312 -0.644531 1.28125 -1.082031 0.96875 -1.65625 C 0.664062 -2.226562 0.515625 -2.914062 0.515625 -3.71875 C 0.515625 -4.53125 0.664062 -5.21875 0.96875 -5.78125 C 1.28125 -6.351562 1.695312 -6.789062 2.21875 -7.09375 C 2.75 -7.394531 3.34375 -7.546875 4 -7.546875 C 4.65625 -7.546875 5.242188 -7.394531 5.765625 -7.09375 C 6.296875 -6.789062 6.710938 -6.351562 7.015625 -5.78125 C 7.328125 -5.21875 7.484375 -4.53125 7.484375 -3.71875 Z M 5.890625 -3.71875 C 5.890625 -4.507812 5.71875 -5.113281 5.375 -5.53125 C 5.03125 -5.945312 4.570312 -6.15625 4 -6.15625 C 3.425781 -6.15625 2.96875 -5.945312 2.625 -5.53125 C 2.28125 -5.113281 2.109375 -4.507812 2.109375 -3.71875 C 2.109375 -2.9375 2.28125 -2.335938 2.625 -1.921875 C 2.96875 -1.503906 3.425781 -1.296875 4 -1.296875 C 4.570312 -1.296875 5.03125 -1.503906 5.375 -1.921875 C 5.71875 -2.335938 5.890625 -2.9375 5.890625 -3.71875 Z M 5.890625 -3.71875 "/></g></g></g><g fill="#3d3d3d" fill-opacity="1"><g transform="translate(298.196259, 411.758267)"><g><path d="M 6.875 -7.4375 L 6.875 0 L 5.515625 0 L 2.28125 -4.6875 L 2.21875 -4.6875 L 2.21875 0 L 0.640625 0 L 0.640625 -7.4375 L 2.03125 -7.4375 L 5.234375 -2.765625 L 5.3125 -2.765625 L 5.3125 -7.4375 Z M 6.875 -7.4375 "/></g></g></g><g fill="#3d3d3d" fill-opacity="1"><g transform="translate(349.818901, 409.599348)"><g><path d="M 0.640625 -7.4375 L 2.59375 -7.4375 L 4.640625 -2.4375 L 4.71875 -2.4375 L 6.78125 -7.4375 L 8.71875 -7.4375 L 8.71875 0 L 7.1875 0 L 7.1875 -4.84375 L 7.125 -4.84375 L 5.203125 -0.03125 L 4.15625 -0.03125 L 2.234375 -4.859375 L 2.171875 -4.859375 L 2.171875 0 L 0.640625 0 Z M 0.640625 -7.4375 "/></g></g></g><g fill="#3d3d3d" fill-opacity="1"><g transform="translate(359.278277, 409.599348)"><g><path d="M 7.484375 -3.71875 C 7.484375 -2.90625 7.328125 -2.210938 7.015625 -1.640625 C 6.710938 -1.078125 6.296875 -0.644531 5.765625 -0.34375 C 5.242188 -0.0390625 4.65625 0.109375 4 0.109375 C 3.34375 0.109375 2.75 -0.0390625 2.21875 -0.34375 C 1.695312 -0.644531 1.28125 -1.082031 0.96875 -1.65625 C 0.664062 -2.226562 0.515625 -2.914062 0.515625 -3.71875 C 0.515625 -4.53125 0.664062 -5.21875 0.96875 -5.78125 C 1.28125 -6.351562 1.695312 -6.789062 2.21875 -7.09375 C 2.75 -7.394531 3.34375 -7.546875 4 -7.546875 C 4.65625 -7.546875 5.242188 -7.394531 5.765625 -7.09375 C 6.296875 -6.789062 6.710938 -6.351562 7.015625 -5.78125 C 7.328125 -5.21875 7.484375 -4.53125 7.484375 -3.71875 Z M 5.890625 -3.71875 C 5.890625 -4.507812 5.71875 -5.113281 5.375 -5.53125 C 5.03125 -5.945312 4.570312 -6.15625 4 -6.15625 C 3.425781 -6.15625 2.96875 -5.945312 2.625 -5.53125 C 2.28125 -5.113281 2.109375 -4.507812 2.109375 -3.71875 C 2.109375 -2.9375 2.28125 -2.335938 2.625 -1.921875 C 2.96875 -1.503906 3.425781 -1.296875 4 -1.296875 C 4.570312 -1.296875 5.03125 -1.503906 5.375 -1.921875 C 5.71875 -2.335938 5.890625 -2.9375 5.890625 -3.71875 Z M 5.890625 -3.71875 "/></g></g></g><g fill="#3d3d3d" fill-opacity="1"><g transform="translate(367.283479, 409.599348)"><g><path d="M 6.875 -7.4375 L 6.875 0 L 5.515625 0 L 2.28125 -4.6875 L 2.21875 -4.6875 L 2.21875 0 L 0.640625 0 L 0.640625 -7.4375 L 2.03125 -7.4375 L 5.234375 -2.765625 L 5.3125 -2.765625 L 5.3125 -7.4375 Z M 6.875 -7.4375 "/></g></g></g><g fill="#3d3d3d" fill-opacity="1"><g transform="translate(374.808808, 409.599348)"><g><path d="M 0.359375 -6.140625 L 0.359375 -7.4375 L 6.484375 -7.4375 L 6.484375 -6.140625 L 4.203125 -6.140625 L 4.203125 0 L 2.640625 0 L 2.640625 -6.140625 Z M 0.359375 -6.140625 "/></g></g></g><g fill="#3d3d3d" fill-opacity="1"><g transform="translate(381.650674, 409.599348)"><g><path d="M 1.9375 0 L 0.25 0 L 2.8125 -7.4375 L 4.84375 -7.4375 L 7.40625 0 L 5.71875 0 L 5.171875 -1.703125 L 2.484375 -1.703125 Z M 2.875 -2.921875 L 4.765625 -2.921875 L 3.859375 -5.75 L 3.796875 -5.75 Z M 2.875 -2.921875 "/></g></g></g><g fill="#3d3d3d" fill-opacity="1"><g transform="translate(389.306875, 409.599348)"><g><path d="M 5.578125 -5.03125 C 5.484375 -5.382812 5.300781 -5.660156 5.03125 -5.859375 C 4.757812 -6.054688 4.421875 -6.15625 4.015625 -6.15625 C 3.453125 -6.15625 2.992188 -5.941406 2.640625 -5.515625 C 2.285156 -5.097656 2.109375 -4.503906 2.109375 -3.734375 C 2.109375 -2.953125 2.28125 -2.347656 2.625 -1.921875 C 2.976562 -1.503906 3.445312 -1.296875 4.03125 -1.296875 C 4.5625 -1.296875 4.972656 -1.429688 5.265625 -1.703125 C 5.566406 -1.972656 5.722656 -2.335938 5.734375 -2.796875 L 4.140625 -2.796875 L 4.140625 -3.984375 L 7.25 -3.984375 L 7.25 -3.046875 C 7.25 -2.390625 7.109375 -1.828125 6.828125 -1.359375 C 6.554688 -0.890625 6.175781 -0.523438 5.6875 -0.265625 C 5.207031 -0.015625 4.65625 0.109375 4.03125 0.109375 C 3.332031 0.109375 2.71875 -0.046875 2.1875 -0.359375 C 1.664062 -0.671875 1.253906 -1.109375 0.953125 -1.671875 C 0.660156 -2.242188 0.515625 -2.925781 0.515625 -3.71875 C 0.515625 -4.519531 0.664062 -5.207031 0.96875 -5.78125 C 1.28125 -6.351562 1.695312 -6.789062 2.21875 -7.09375 C 2.75 -7.394531 3.34375 -7.546875 4 -7.546875 C 4.5625 -7.546875 5.066406 -7.4375 5.515625 -7.21875 C 5.972656 -7.007812 6.347656 -6.71875 6.640625 -6.34375 C 6.929688 -5.96875 7.113281 -5.53125 7.1875 -5.03125 Z M 5.578125 -5.03125 "/></g></g></g><g fill="#3d3d3d" fill-opacity="1"><g transform="translate(397.093957, 409.599348)"><g><path d="M 5.25 -7.4375 L 6.8125 -7.4375 L 6.8125 -2.515625 C 6.8125 -1.953125 6.679688 -1.472656 6.421875 -1.078125 C 6.160156 -0.691406 5.796875 -0.394531 5.328125 -0.1875 C 4.867188 0.0078125 4.335938 0.109375 3.734375 0.109375 C 3.128906 0.109375 2.59375 0.0078125 2.125 -0.1875 C 1.664062 -0.394531 1.300781 -0.691406 1.03125 -1.078125 C 0.769531 -1.472656 0.640625 -1.953125 0.640625 -2.515625 L 0.640625 -7.4375 L 2.21875 -7.4375 L 2.21875 -2.578125 C 2.21875 -2.179688 2.359375 -1.867188 2.640625 -1.640625 C 2.929688 -1.410156 3.296875 -1.296875 3.734375 -1.296875 C 4.171875 -1.296875 4.53125 -1.410156 4.8125 -1.640625 C 5.101562 -1.867188 5.25 -2.179688 5.25 -2.578125 Z M 5.25 -7.4375 "/></g></g></g><g fill="#3d3d3d" fill-opacity="1"><g transform="translate(171.64918, 401.324919)"><g><path d="M 0.640625 0 L 0.640625 -7.4375 L 3.578125 -7.4375 C 4.148438 -7.4375 4.632812 -7.328125 5.03125 -7.109375 C 5.425781 -6.898438 5.726562 -6.601562 5.9375 -6.21875 C 6.144531 -5.84375 6.25 -5.410156 6.25 -4.921875 C 6.25 -4.421875 6.140625 -3.984375 5.921875 -3.609375 C 5.710938 -3.234375 5.40625 -2.9375 5 -2.71875 C 4.601562 -2.507812 4.117188 -2.40625 3.546875 -2.40625 L 2.21875 -2.40625 L 2.21875 0 Z M 2.21875 -3.671875 L 3.296875 -3.671875 C 3.742188 -3.671875 4.078125 -3.785156 4.296875 -4.015625 C 4.515625 -4.253906 4.625 -4.554688 4.625 -4.921875 C 4.625 -5.296875 4.515625 -5.59375 4.296875 -5.8125 C 4.078125 -6.039062 3.738281 -6.15625 3.28125 -6.15625 L 2.21875 -6.15625 Z M 2.21875 -3.671875 "/></g></g></g><g fill="#3d3d3d" fill-opacity="1"><g transform="translate(178.280195, 401.324919)"><g><path d="M 1.9375 0 L 0.25 0 L 2.8125 -7.4375 L 4.84375 -7.4375 L 7.40625 0 L 5.71875 0 L 5.171875 -1.703125 L 2.484375 -1.703125 Z M 2.875 -2.921875 L 4.765625 -2.921875 L 3.859375 -5.75 L 3.796875 -5.75 Z M 2.875 -2.921875 "/></g></g></g><g fill="#3d3d3d" fill-opacity="1"><g transform="translate(185.936396, 401.324919)"><g><path d="M 1.9375 0 L 0.25 0 L 2.8125 -7.4375 L 4.84375 -7.4375 L 7.40625 0 L 5.71875 0 L 5.171875 -1.703125 L 2.484375 -1.703125 Z M 2.875 -2.921875 L 4.765625 -2.921875 L 3.859375 -5.75 L 3.796875 -5.75 Z M 2.875 -2.921875 "/></g></g></g><g fill="#3d3d3d" fill-opacity="1"><g transform="translate(193.592598, 401.324919)"><g><path d="M 0.640625 0 L 0.640625 -7.4375 L 3.578125 -7.4375 C 4.429688 -7.4375 5.085938 -7.21875 5.546875 -6.78125 C 6.015625 -6.34375 6.25 -5.753906 6.25 -5.015625 C 6.25 -4.503906 6.132812 -4.066406 5.90625 -3.703125 C 5.6875 -3.347656 5.363281 -3.078125 4.9375 -2.890625 L 6.515625 0 L 4.78125 0 L 3.375 -2.640625 L 2.21875 -2.640625 L 2.21875 0 Z M 2.21875 -3.90625 L 3.296875 -3.90625 C 4.179688 -3.90625 4.625 -4.273438 4.625 -5.015625 C 4.625 -5.773438 4.175781 -6.15625 3.28125 -6.15625 L 2.21875 -6.15625 Z M 2.21875 -3.90625 "/></g></g></g><g fill="#3d3d3d" fill-opacity="1"><g transform="translate(200.310861, 401.324919)"><g><path d="M 0.640625 0 L 0.640625 -7.4375 L 2.21875 -7.4375 L 2.21875 -1.296875 L 5.40625 -1.296875 L 5.40625 0 Z M 0.640625 0 "/></g></g></g><g fill="#3d3d3d" fill-opacity="1"><g transform="translate(244.326039, 386.410334)"><g><path d="M 2.328125 0 L 0.1875 -7.4375 L 1.90625 -7.4375 L 3.140625 -2.265625 L 3.203125 -2.265625 L 4.5625 -7.4375 L 6.03125 -7.4375 L 7.390625 -2.265625 L 7.453125 -2.265625 L 8.6875 -7.4375 L 10.40625 -7.4375 L 8.28125 0 L 6.75 0 L 5.328125 -4.859375 L 5.265625 -4.859375 L 3.859375 0 Z M 2.328125 0 "/></g></g></g><g fill="#3d3d3d" fill-opacity="1"><g transform="translate(254.93057, 386.410334)"><g><path d="M 7.484375 -3.71875 C 7.484375 -2.90625 7.328125 -2.210938 7.015625 -1.640625 C 6.710938 -1.078125 6.296875 -0.644531 5.765625 -0.34375 C 5.242188 -0.0390625 4.65625 0.109375 4 0.109375 C 3.34375 0.109375 2.75 -0.0390625 2.21875 -0.34375 C 1.695312 -0.644531 1.28125 -1.082031 0.96875 -1.65625 C 0.664062 -2.226562 0.515625 -2.914062 0.515625 -3.71875 C 0.515625 -4.53125 0.664062 -5.21875 0.96875 -5.78125 C 1.28125 -6.351562 1.695312 -6.789062 2.21875 -7.09375 C 2.75 -7.394531 3.34375 -7.546875 4 -7.546875 C 4.65625 -7.546875 5.242188 -7.394531 5.765625 -7.09375 C 6.296875 -6.789062 6.710938 -6.351562 7.015625 -5.78125 C 7.328125 -5.21875 7.484375 -4.53125 7.484375 -3.71875 Z M 5.890625 -3.71875 C 5.890625 -4.507812 5.71875 -5.113281 5.375 -5.53125 C 5.03125 -5.945312 4.570312 -6.15625 4 -6.15625 C 3.425781 -6.15625 2.96875 -5.945312 2.625 -5.53125 C 2.28125 -5.113281 2.109375 -4.507812 2.109375 -3.71875 C 2.109375 -2.9375 2.28125 -2.335938 2.625 -1.921875 C 2.96875 -1.503906 3.425781 -1.296875 4 -1.296875 C 4.570312 -1.296875 5.03125 -1.503906 5.375 -1.921875 C 5.71875 -2.335938 5.890625 -2.9375 5.890625 -3.71875 Z M 5.890625 -3.71875 "/></g></g></g><g fill="#3d3d3d" fill-opacity="1"><g transform="translate(262.935772, 386.410334)"><g><path d="M 0.640625 0 L 0.640625 -7.4375 L 3.578125 -7.4375 C 4.429688 -7.4375 5.085938 -7.21875 5.546875 -6.78125 C 6.015625 -6.34375 6.25 -5.753906 6.25 -5.015625 C 6.25 -4.503906 6.132812 -4.066406 5.90625 -3.703125 C 5.6875 -3.347656 5.363281 -3.078125 4.9375 -2.890625 L 6.515625 0 L 4.78125 0 L 3.375 -2.640625 L 2.21875 -2.640625 L 2.21875 0 Z M 2.21875 -3.90625 L 3.296875 -3.90625 C 4.179688 -3.90625 4.625 -4.273438 4.625 -5.015625 C 4.625 -5.773438 4.175781 -6.15625 3.28125 -6.15625 L 2.21875 -6.15625 Z M 2.21875 -3.90625 "/></g></g></g><g fill="#3d3d3d" fill-opacity="1"><g transform="translate(269.654035, 386.410334)"><g><path d="M 7.21875 -4.84375 L 5.625 -4.84375 C 5.5625 -5.25 5.382812 -5.566406 5.09375 -5.796875 C 4.8125 -6.035156 4.453125 -6.15625 4.015625 -6.15625 C 3.441406 -6.15625 2.976562 -5.941406 2.625 -5.515625 C 2.28125 -5.097656 2.109375 -4.5 2.109375 -3.71875 C 2.109375 -2.925781 2.28125 -2.320312 2.625 -1.90625 C 2.976562 -1.5 3.441406 -1.296875 4.015625 -1.296875 C 4.429688 -1.296875 4.785156 -1.40625 5.078125 -1.625 C 5.367188 -1.84375 5.550781 -2.148438 5.625 -2.546875 L 7.21875 -2.53125 C 7.15625 -2.082031 6.988281 -1.65625 6.71875 -1.25 C 6.457031 -0.84375 6.09375 -0.515625 5.625 -0.265625 C 5.164062 -0.015625 4.617188 0.109375 3.984375 0.109375 C 3.316406 0.109375 2.722656 -0.0390625 2.203125 -0.34375 C 1.679688 -0.644531 1.269531 -1.078125 0.96875 -1.640625 C 0.664062 -2.210938 0.515625 -2.90625 0.515625 -3.71875 C 0.515625 -4.53125 0.664062 -5.21875 0.96875 -5.78125 C 1.28125 -6.351562 1.695312 -6.789062 2.21875 -7.09375 C 2.738281 -7.394531 3.328125 -7.546875 3.984375 -7.546875 C 4.554688 -7.546875 5.070312 -7.4375 5.53125 -7.21875 C 6 -7.007812 6.378906 -6.703125 6.671875 -6.296875 C 6.960938 -5.898438 7.144531 -5.414062 7.21875 -4.84375 Z M 7.21875 -4.84375 "/></g></g></g><g fill="#3d3d3d" fill-opacity="1"><g transform="translate(277.353869, 386.410334)"><g><path d="M 0.640625 0 L 0.640625 -7.4375 L 5.65625 -7.4375 L 5.65625 -6.140625 L 2.21875 -6.140625 L 2.21875 -4.375 L 5.40625 -4.375 L 5.40625 -3.078125 L 2.21875 -3.078125 L 2.21875 -1.296875 L 5.671875 -1.296875 L 5.671875 0 Z M 0.640625 0 "/></g></g></g><g fill="#3d3d3d" fill-opacity="1"><g transform="translate(283.624979, 386.410334)"><g><path d="M 4.6875 -5.296875 C 4.65625 -5.597656 4.523438 -5.828125 4.296875 -5.984375 C 4.078125 -6.148438 3.78125 -6.234375 3.40625 -6.234375 C 3.019531 -6.234375 2.722656 -6.148438 2.515625 -5.984375 C 2.316406 -5.828125 2.21875 -5.628906 2.21875 -5.390625 C 2.207031 -5.128906 2.316406 -4.929688 2.546875 -4.796875 C 2.785156 -4.660156 3.066406 -4.550781 3.390625 -4.46875 L 4.0625 -4.3125 C 4.488281 -4.21875 4.867188 -4.078125 5.203125 -3.890625 C 5.546875 -3.703125 5.8125 -3.460938 6 -3.171875 C 6.195312 -2.890625 6.296875 -2.539062 6.296875 -2.125 C 6.296875 -1.445312 6.039062 -0.90625 5.53125 -0.5 C 5.019531 -0.09375 4.3125 0.109375 3.40625 0.109375 C 2.5 0.109375 1.773438 -0.09375 1.234375 -0.5 C 0.703125 -0.914062 0.425781 -1.53125 0.40625 -2.34375 L 1.9375 -2.34375 C 1.957031 -1.96875 2.097656 -1.6875 2.359375 -1.5 C 2.628906 -1.3125 2.972656 -1.21875 3.390625 -1.21875 C 3.785156 -1.21875 4.101562 -1.300781 4.34375 -1.46875 C 4.582031 -1.632812 4.703125 -1.851562 4.703125 -2.125 C 4.703125 -2.375 4.59375 -2.566406 4.375 -2.703125 C 4.15625 -2.847656 3.84375 -2.96875 3.4375 -3.0625 L 2.625 -3.265625 C 2 -3.410156 1.503906 -3.644531 1.140625 -3.96875 C 0.773438 -4.300781 0.597656 -4.742188 0.609375 -5.296875 C 0.597656 -5.742188 0.710938 -6.132812 0.953125 -6.46875 C 1.203125 -6.8125 1.539062 -7.078125 1.96875 -7.265625 C 2.394531 -7.453125 2.878906 -7.546875 3.421875 -7.546875 C 3.972656 -7.546875 4.453125 -7.453125 4.859375 -7.265625 C 5.273438 -7.078125 5.597656 -6.8125 5.828125 -6.46875 C 6.066406 -6.132812 6.1875 -5.742188 6.1875 -5.296875 Z M 4.6875 -5.296875 "/></g></g></g><g fill="#3d3d3d" fill-opacity="1"><g transform="translate(290.328704, 386.410334)"><g><path d="M 0.359375 -6.140625 L 0.359375 -7.4375 L 6.484375 -7.4375 L 6.484375 -6.140625 L 4.203125 -6.140625 L 4.203125 0 L 2.640625 0 L 2.640625 -6.140625 Z M 0.359375 -6.140625 "/></g></g></g><g fill="#3d3d3d" fill-opacity="1"><g transform="translate(297.17057, 386.410334)"><g><path d="M 0.640625 0 L 0.640625 -7.4375 L 5.65625 -7.4375 L 5.65625 -6.140625 L 2.21875 -6.140625 L 2.21875 -4.375 L 5.40625 -4.375 L 5.40625 -3.078125 L 2.21875 -3.078125 L 2.21875 -1.296875 L 5.671875 -1.296875 L 5.671875 0 Z M 0.640625 0 "/></g></g></g><g fill="#3d3d3d" fill-opacity="1"><g transform="translate(303.44168, 386.410334)"><g><path d="M 0.640625 0 L 0.640625 -7.4375 L 3.578125 -7.4375 C 4.429688 -7.4375 5.085938 -7.21875 5.546875 -6.78125 C 6.015625 -6.34375 6.25 -5.753906 6.25 -5.015625 C 6.25 -4.503906 6.132812 -4.066406 5.90625 -3.703125 C 5.6875 -3.347656 5.363281 -3.078125 4.9375 -2.890625 L 6.515625 0 L 4.78125 0 L 3.375 -2.640625 L 2.21875 -2.640625 L 2.21875 0 Z M 2.21875 -3.90625 L 3.296875 -3.90625 C 4.179688 -3.90625 4.625 -4.273438 4.625 -5.015625 C 4.625 -5.773438 4.175781 -6.15625 3.28125 -6.15625 L 2.21875 -6.15625 Z M 2.21875 -3.90625 "/></g></g></g><g fill="#3d3d3d" fill-opacity="1"><g transform="translate(132.369057, 358.096642)"><g><path d="M 0.640625 -7.4375 L 2.59375 -7.4375 L 4.640625 -2.4375 L 4.71875 -2.4375 L 6.78125 -7.4375 L 8.71875 -7.4375 L 8.71875 0 L 7.1875 0 L 7.1875 -4.84375 L 7.125 -4.84375 L 5.203125 -0.03125 L 4.15625 -0.03125 L 2.234375 -4.859375 L 2.171875 -4.859375 L 2.171875 0 L 0.640625 0 Z M 0.640625 -7.4375 "/></g></g></g><g fill="#3d3d3d" fill-opacity="1"><g transform="translate(141.828433, 358.096642)"><g><path d="M 1.9375 0 L 0.25 0 L 2.8125 -7.4375 L 4.84375 -7.4375 L 7.40625 0 L 5.71875 0 L 5.171875 -1.703125 L 2.484375 -1.703125 Z M 2.875 -2.921875 L 4.765625 -2.921875 L 3.859375 -5.75 L 3.796875 -5.75 Z M 2.875 -2.921875 "/></g></g></g><g fill="#3d3d3d" fill-opacity="1"><g transform="translate(149.484634, 358.096642)"><g><path d="M 0.640625 0 L 0.640625 -7.4375 L 2.21875 -7.4375 L 2.21875 -1.296875 L 5.40625 -1.296875 L 5.40625 0 Z M 0.640625 0 "/></g></g></g><g fill="#3d3d3d" fill-opacity="1"><g transform="translate(155.294045, 358.096642)"><g><path d="M 0.640625 -7.4375 L 2.59375 -7.4375 L 4.640625 -2.4375 L 4.71875 -2.4375 L 6.78125 -7.4375 L 8.71875 -7.4375 L 8.71875 0 L 7.1875 0 L 7.1875 -4.84375 L 7.125 -4.84375 L 5.203125 -0.03125 L 4.15625 -0.03125 L 2.234375 -4.859375 L 2.171875 -4.859375 L 2.171875 0 L 0.640625 0 Z M 0.640625 -7.4375 "/></g></g></g><g fill="#3d3d3d" fill-opacity="1"><g transform="translate(164.753421, 358.096642)"><g><path d="M 0.640625 0 L 0.640625 -7.4375 L 5.65625 -7.4375 L 5.65625 -6.140625 L 2.21875 -6.140625 L 2.21875 -4.375 L 5.40625 -4.375 L 5.40625 -3.078125 L 2.21875 -3.078125 L 2.21875 -1.296875 L 5.671875 -1.296875 L 5.671875 0 Z M 0.640625 0 "/></g></g></g><g fill="#3d3d3d" fill-opacity="1"><g transform="translate(171.024532, 358.096642)"><g><path d="M 4.6875 -5.296875 C 4.65625 -5.597656 4.523438 -5.828125 4.296875 -5.984375 C 4.078125 -6.148438 3.78125 -6.234375 3.40625 -6.234375 C 3.019531 -6.234375 2.722656 -6.148438 2.515625 -5.984375 C 2.316406 -5.828125 2.21875 -5.628906 2.21875 -5.390625 C 2.207031 -5.128906 2.316406 -4.929688 2.546875 -4.796875 C 2.785156 -4.660156 3.066406 -4.550781 3.390625 -4.46875 L 4.0625 -4.3125 C 4.488281 -4.21875 4.867188 -4.078125 5.203125 -3.890625 C 5.546875 -3.703125 5.8125 -3.460938 6 -3.171875 C 6.195312 -2.890625 6.296875 -2.539062 6.296875 -2.125 C 6.296875 -1.445312 6.039062 -0.90625 5.53125 -0.5 C 5.019531 -0.09375 4.3125 0.109375 3.40625 0.109375 C 2.5 0.109375 1.773438 -0.09375 1.234375 -0.5 C 0.703125 -0.914062 0.425781 -1.53125 0.40625 -2.34375 L 1.9375 -2.34375 C 1.957031 -1.96875 2.097656 -1.6875 2.359375 -1.5 C 2.628906 -1.3125 2.972656 -1.21875 3.390625 -1.21875 C 3.785156 -1.21875 4.101562 -1.300781 4.34375 -1.46875 C 4.582031 -1.632812 4.703125 -1.851562 4.703125 -2.125 C 4.703125 -2.375 4.59375 -2.566406 4.375 -2.703125 C 4.15625 -2.847656 3.84375 -2.96875 3.4375 -3.0625 L 2.625 -3.265625 C 2 -3.410156 1.503906 -3.644531 1.140625 -3.96875 C 0.773438 -4.300781 0.597656 -4.742188 0.609375 -5.296875 C 0.597656 -5.742188 0.710938 -6.132812 0.953125 -6.46875 C 1.203125 -6.8125 1.539062 -7.078125 1.96875 -7.265625 C 2.394531 -7.453125 2.878906 -7.546875 3.421875 -7.546875 C 3.972656 -7.546875 4.453125 -7.453125 4.859375 -7.265625 C 5.273438 -7.078125 5.597656 -6.8125 5.828125 -6.46875 C 6.066406 -6.132812 6.1875 -5.742188 6.1875 -5.296875 Z M 4.6875 -5.296875 "/></g></g></g><g fill="#3d3d3d" fill-opacity="1"><g transform="translate(177.728257, 358.096642)"><g><path d="M 0.640625 0 L 0.640625 -7.4375 L 3.625 -7.4375 C 4.445312 -7.4375 5.0625 -7.257812 5.46875 -6.90625 C 5.882812 -6.550781 6.09375 -6.09375 6.09375 -5.53125 C 6.09375 -5.09375 5.960938 -4.738281 5.703125 -4.46875 C 5.453125 -4.195312 5.132812 -4.019531 4.75 -3.9375 L 4.75 -3.859375 C 5.03125 -3.847656 5.296875 -3.769531 5.546875 -3.625 C 5.796875 -3.476562 6 -3.269531 6.15625 -3 C 6.3125 -2.738281 6.390625 -2.425781 6.390625 -2.0625 C 6.390625 -1.664062 6.289062 -1.3125 6.09375 -1 C 5.894531 -0.6875 5.601562 -0.441406 5.21875 -0.265625 C 4.84375 -0.0859375 4.378906 0 3.828125 0 Z M 2.21875 -1.28125 L 3.5 -1.28125 C 3.945312 -1.28125 4.269531 -1.363281 4.46875 -1.53125 C 4.664062 -1.707031 4.765625 -1.9375 4.765625 -2.21875 C 4.765625 -2.519531 4.65625 -2.769531 4.4375 -2.96875 C 4.21875 -3.164062 3.921875 -3.265625 3.546875 -3.265625 L 2.21875 -3.265625 Z M 2.21875 -4.328125 L 3.390625 -4.328125 C 3.710938 -4.328125 3.976562 -4.410156 4.1875 -4.578125 C 4.40625 -4.742188 4.515625 -4.976562 4.515625 -5.28125 C 4.515625 -5.539062 4.414062 -5.753906 4.21875 -5.921875 C 4.03125 -6.085938 3.765625 -6.171875 3.421875 -6.171875 L 2.21875 -6.171875 Z M 2.21875 -4.328125 "/></g></g></g><g fill="#3d3d3d" fill-opacity="1"><g transform="translate(184.493778, 358.096642)"><g><path d="M 5.25 -7.4375 L 6.8125 -7.4375 L 6.8125 -2.515625 C 6.8125 -1.953125 6.679688 -1.472656 6.421875 -1.078125 C 6.160156 -0.691406 5.796875 -0.394531 5.328125 -0.1875 C 4.867188 0.0078125 4.335938 0.109375 3.734375 0.109375 C 3.128906 0.109375 2.59375 0.0078125 2.125 -0.1875 C 1.664062 -0.394531 1.300781 -0.691406 1.03125 -1.078125 C 0.769531 -1.472656 0.640625 -1.953125 0.640625 -2.515625 L 0.640625 -7.4375 L 2.21875 -7.4375 L 2.21875 -2.578125 C 2.21875 -2.179688 2.359375 -1.867188 2.640625 -1.640625 C 2.929688 -1.410156 3.296875 -1.296875 3.734375 -1.296875 C 4.171875 -1.296875 4.53125 -1.410156 4.8125 -1.640625 C 5.101562 -1.867188 5.25 -2.179688 5.25 -2.578125 Z M 5.25 -7.4375 "/></g></g></g><g fill="#3d3d3d" fill-opacity="1"><g transform="translate(191.960945, 358.096642)"><g><path d="M 0.640625 0 L 0.640625 -7.4375 L 3.578125 -7.4375 C 4.429688 -7.4375 5.085938 -7.21875 5.546875 -6.78125 C 6.015625 -6.34375 6.25 -5.753906 6.25 -5.015625 C 6.25 -4.503906 6.132812 -4.066406 5.90625 -3.703125 C 5.6875 -3.347656 5.363281 -3.078125 4.9375 -2.890625 L 6.515625 0 L 4.78125 0 L 3.375 -2.640625 L 2.21875 -2.640625 L 2.21875 0 Z M 2.21875 -3.90625 L 3.296875 -3.90625 C 4.179688 -3.90625 4.625 -4.273438 4.625 -5.015625 C 4.625 -5.773438 4.175781 -6.15625 3.28125 -6.15625 L 2.21875 -6.15625 Z M 2.21875 -3.90625 "/></g></g></g><g fill="#3d3d3d" fill-opacity="1"><g transform="translate(198.679208, 358.096642)"><g><path d="M 0.203125 -7.4375 L 1.96875 -7.4375 L 3.671875 -4.234375 L 3.75 -4.234375 L 5.4375 -7.4375 L 7.203125 -7.4375 L 4.484375 -2.625 L 4.484375 0 L 2.921875 0 L 2.921875 -2.625 Z M 0.203125 -7.4375 "/></g></g></g><g fill="#3d3d3d" fill-opacity="1"><g transform="translate(122.845781, 311.321488)"><g><path d="M 0.640625 -7.4375 L 2.59375 -7.4375 L 4.640625 -2.4375 L 4.71875 -2.4375 L 6.78125 -7.4375 L 8.71875 -7.4375 L 8.71875 0 L 7.1875 0 L 7.1875 -4.84375 L 7.125 -4.84375 L 5.203125 -0.03125 L 4.15625 -0.03125 L 2.234375 -4.859375 L 2.171875 -4.859375 L 2.171875 0 L 0.640625 0 Z M 0.640625 -7.4375 "/></g></g></g><g fill="#3d3d3d" fill-opacity="1"><g transform="translate(132.305157, 311.321488)"><g><path d="M 7.484375 -3.71875 C 7.484375 -2.90625 7.328125 -2.210938 7.015625 -1.640625 C 6.710938 -1.078125 6.296875 -0.644531 5.765625 -0.34375 C 5.242188 -0.0390625 4.65625 0.109375 4 0.109375 C 3.34375 0.109375 2.75 -0.0390625 2.21875 -0.34375 C 1.695312 -0.644531 1.28125 -1.082031 0.96875 -1.65625 C 0.664062 -2.226562 0.515625 -2.914062 0.515625 -3.71875 C 0.515625 -4.53125 0.664062 -5.21875 0.96875 -5.78125 C 1.28125 -6.351562 1.695312 -6.789062 2.21875 -7.09375 C 2.75 -7.394531 3.34375 -7.546875 4 -7.546875 C 4.65625 -7.546875 5.242188 -7.394531 5.765625 -7.09375 C 6.296875 -6.789062 6.710938 -6.351562 7.015625 -5.78125 C 7.328125 -5.21875 7.484375 -4.53125 7.484375 -3.71875 Z M 5.890625 -3.71875 C 5.890625 -4.507812 5.71875 -5.113281 5.375 -5.53125 C 5.03125 -5.945312 4.570312 -6.15625 4 -6.15625 C 3.425781 -6.15625 2.96875 -5.945312 2.625 -5.53125 C 2.28125 -5.113281 2.109375 -4.507812 2.109375 -3.71875 C 2.109375 -2.9375 2.28125 -2.335938 2.625 -1.921875 C 2.96875 -1.503906 3.425781 -1.296875 4 -1.296875 C 4.570312 -1.296875 5.03125 -1.503906 5.375 -1.921875 C 5.71875 -2.335938 5.890625 -2.9375 5.890625 -3.71875 Z M 5.890625 -3.71875 "/></g></g></g><g fill="#3d3d3d" fill-opacity="1"><g transform="translate(140.310359, 311.321488)"><g><path d="M 7.484375 -3.71875 C 7.484375 -2.90625 7.328125 -2.210938 7.015625 -1.640625 C 6.710938 -1.078125 6.296875 -0.644531 5.765625 -0.34375 C 5.242188 -0.0390625 4.65625 0.109375 4 0.109375 C 3.34375 0.109375 2.75 -0.0390625 2.21875 -0.34375 C 1.695312 -0.644531 1.28125 -1.082031 0.96875 -1.65625 C 0.664062 -2.226562 0.515625 -2.914062 0.515625 -3.71875 C 0.515625 -4.53125 0.664062 -5.21875 0.96875 -5.78125 C 1.28125 -6.351562 1.695312 -6.789062 2.21875 -7.09375 C 2.75 -7.394531 3.34375 -7.546875 4 -7.546875 C 4.65625 -7.546875 5.242188 -7.394531 5.765625 -7.09375 C 6.296875 -6.789062 6.710938 -6.351562 7.015625 -5.78125 C 7.328125 -5.21875 7.484375 -4.53125 7.484375 -3.71875 Z M 5.890625 -3.71875 C 5.890625 -4.507812 5.71875 -5.113281 5.375 -5.53125 C 5.03125 -5.945312 4.570312 -6.15625 4 -6.15625 C 3.425781 -6.15625 2.96875 -5.945312 2.625 -5.53125 C 2.28125 -5.113281 2.109375 -4.507812 2.109375 -3.71875 C 2.109375 -2.9375 2.28125 -2.335938 2.625 -1.921875 C 2.96875 -1.503906 3.425781 -1.296875 4 -1.296875 C 4.570312 -1.296875 5.03125 -1.503906 5.375 -1.921875 C 5.71875 -2.335938 5.890625 -2.9375 5.890625 -3.71875 Z M 5.890625 -3.71875 "/></g></g></g><g fill="#3d3d3d" fill-opacity="1"><g transform="translate(148.315561, 311.321488)"><g><path d="M 0.640625 0 L 0.640625 -7.4375 L 3.578125 -7.4375 C 4.429688 -7.4375 5.085938 -7.21875 5.546875 -6.78125 C 6.015625 -6.34375 6.25 -5.753906 6.25 -5.015625 C 6.25 -4.503906 6.132812 -4.066406 5.90625 -3.703125 C 5.6875 -3.347656 5.363281 -3.078125 4.9375 -2.890625 L 6.515625 0 L 4.78125 0 L 3.375 -2.640625 L 2.21875 -2.640625 L 2.21875 0 Z M 2.21875 -3.90625 L 3.296875 -3.90625 C 4.179688 -3.90625 4.625 -4.273438 4.625 -5.015625 C 4.625 -5.773438 4.175781 -6.15625 3.28125 -6.15625 L 2.21875 -6.15625 Z M 2.21875 -3.90625 "/></g></g></g><g fill="#3d3d3d" fill-opacity="1"><g transform="translate(155.033824, 311.321488)"><g><path d="M 0.640625 0 L 0.640625 -7.4375 L 3.578125 -7.4375 C 4.429688 -7.4375 5.085938 -7.21875 5.546875 -6.78125 C 6.015625 -6.34375 6.25 -5.753906 6.25 -5.015625 C 6.25 -4.503906 6.132812 -4.066406 5.90625 -3.703125 C 5.6875 -3.347656 5.363281 -3.078125 4.9375 -2.890625 L 6.515625 0 L 4.78125 0 L 3.375 -2.640625 L 2.21875 -2.640625 L 2.21875 0 Z M 2.21875 -3.90625 L 3.296875 -3.90625 C 4.179688 -3.90625 4.625 -4.273438 4.625 -5.015625 C 4.625 -5.773438 4.175781 -6.15625 3.28125 -6.15625 L 2.21875 -6.15625 Z M 2.21875 -3.90625 "/></g></g></g><g fill="#3d3d3d" fill-opacity="1"><g transform="translate(161.752087, 311.321488)"><g><path d="M 0.640625 0 L 0.640625 -7.4375 L 5.65625 -7.4375 L 5.65625 -6.140625 L 2.21875 -6.140625 L 2.21875 -4.375 L 5.40625 -4.375 L 5.40625 -3.078125 L 2.21875 -3.078125 L 2.21875 -1.296875 L 5.671875 -1.296875 L 5.671875 0 Z M 0.640625 0 "/></g></g></g><g fill="#3d3d3d" fill-opacity="1"><g transform="translate(168.023197, 311.321488)"><g><path d="M 0.640625 0 L 0.640625 -7.4375 L 5.65625 -7.4375 L 5.65625 -6.140625 L 2.21875 -6.140625 L 2.21875 -4.375 L 5.40625 -4.375 L 5.40625 -3.078125 L 2.21875 -3.078125 L 2.21875 -1.296875 L 5.671875 -1.296875 L 5.671875 0 Z M 0.640625 0 "/></g></g></g><g fill="#3d3d3d" fill-opacity="1"><g transform="translate(174.294308, 311.321488)"><g><path d="M 4.6875 -5.296875 C 4.65625 -5.597656 4.523438 -5.828125 4.296875 -5.984375 C 4.078125 -6.148438 3.78125 -6.234375 3.40625 -6.234375 C 3.019531 -6.234375 2.722656 -6.148438 2.515625 -5.984375 C 2.316406 -5.828125 2.21875 -5.628906 2.21875 -5.390625 C 2.207031 -5.128906 2.316406 -4.929688 2.546875 -4.796875 C 2.785156 -4.660156 3.066406 -4.550781 3.390625 -4.46875 L 4.0625 -4.3125 C 4.488281 -4.21875 4.867188 -4.078125 5.203125 -3.890625 C 5.546875 -3.703125 5.8125 -3.460938 6 -3.171875 C 6.195312 -2.890625 6.296875 -2.539062 6.296875 -2.125 C 6.296875 -1.445312 6.039062 -0.90625 5.53125 -0.5 C 5.019531 -0.09375 4.3125 0.109375 3.40625 0.109375 C 2.5 0.109375 1.773438 -0.09375 1.234375 -0.5 C 0.703125 -0.914062 0.425781 -1.53125 0.40625 -2.34375 L 1.9375 -2.34375 C 1.957031 -1.96875 2.097656 -1.6875 2.359375 -1.5 C 2.628906 -1.3125 2.972656 -1.21875 3.390625 -1.21875 C 3.785156 -1.21875 4.101562 -1.300781 4.34375 -1.46875 C 4.582031 -1.632812 4.703125 -1.851562 4.703125 -2.125 C 4.703125 -2.375 4.59375 -2.566406 4.375 -2.703125 C 4.15625 -2.847656 3.84375 -2.96875 3.4375 -3.0625 L 2.625 -3.265625 C 2 -3.410156 1.503906 -3.644531 1.140625 -3.96875 C 0.773438 -4.300781 0.597656 -4.742188 0.609375 -5.296875 C 0.597656 -5.742188 0.710938 -6.132812 0.953125 -6.46875 C 1.203125 -6.8125 1.539062 -7.078125 1.96875 -7.265625 C 2.394531 -7.453125 2.878906 -7.546875 3.421875 -7.546875 C 3.972656 -7.546875 4.453125 -7.453125 4.859375 -7.265625 C 5.273438 -7.078125 5.597656 -6.8125 5.828125 -6.46875 C 6.066406 -6.132812 6.1875 -5.742188 6.1875 -5.296875 Z M 4.6875 -5.296875 "/></g></g></g><g fill="#3d3d3d" fill-opacity="1"><g transform="translate(180.998033, 311.321488)"><g><path d="M 0.640625 0 L 0.640625 -7.4375 L 3.625 -7.4375 C 4.445312 -7.4375 5.0625 -7.257812 5.46875 -6.90625 C 5.882812 -6.550781 6.09375 -6.09375 6.09375 -5.53125 C 6.09375 -5.09375 5.960938 -4.738281 5.703125 -4.46875 C 5.453125 -4.195312 5.132812 -4.019531 4.75 -3.9375 L 4.75 -3.859375 C 5.03125 -3.847656 5.296875 -3.769531 5.546875 -3.625 C 5.796875 -3.476562 6 -3.269531 6.15625 -3 C 6.3125 -2.738281 6.390625 -2.425781 6.390625 -2.0625 C 6.390625 -1.664062 6.289062 -1.3125 6.09375 -1 C 5.894531 -0.6875 5.601562 -0.441406 5.21875 -0.265625 C 4.84375 -0.0859375 4.378906 0 3.828125 0 Z M 2.21875 -1.28125 L 3.5 -1.28125 C 3.945312 -1.28125 4.269531 -1.363281 4.46875 -1.53125 C 4.664062 -1.707031 4.765625 -1.9375 4.765625 -2.21875 C 4.765625 -2.519531 4.65625 -2.769531 4.4375 -2.96875 C 4.21875 -3.164062 3.921875 -3.265625 3.546875 -3.265625 L 2.21875 -3.265625 Z M 2.21875 -4.328125 L 3.390625 -4.328125 C 3.710938 -4.328125 3.976562 -4.410156 4.1875 -4.578125 C 4.40625 -4.742188 4.515625 -4.976562 4.515625 -5.28125 C 4.515625 -5.539062 4.414062 -5.753906 4.21875 -5.921875 C 4.03125 -6.085938 3.765625 -6.171875 3.421875 -6.171875 L 2.21875 -6.171875 Z M 2.21875 -4.328125 "/></g></g></g><g fill="#3d3d3d" fill-opacity="1"><g transform="translate(187.763554, 311.321488)"><g><path d="M 0.640625 0 L 0.640625 -7.4375 L 5.65625 -7.4375 L 5.65625 -6.140625 L 2.21875 -6.140625 L 2.21875 -4.375 L 5.40625 -4.375 L 5.40625 -3.078125 L 2.21875 -3.078125 L 2.21875 -1.296875 L 5.671875 -1.296875 L 5.671875 0 Z M 0.640625 0 "/></g></g></g><g fill="#3d3d3d" fill-opacity="1"><g transform="translate(194.034665, 311.321488)"><g><path d="M 0.640625 0 L 0.640625 -7.4375 L 3.578125 -7.4375 C 4.429688 -7.4375 5.085938 -7.21875 5.546875 -6.78125 C 6.015625 -6.34375 6.25 -5.753906 6.25 -5.015625 C 6.25 -4.503906 6.132812 -4.066406 5.90625 -3.703125 C 5.6875 -3.347656 5.363281 -3.078125 4.9375 -2.890625 L 6.515625 0 L 4.78125 0 L 3.375 -2.640625 L 2.21875 -2.640625 L 2.21875 0 Z M 2.21875 -3.90625 L 3.296875 -3.90625 C 4.179688 -3.90625 4.625 -4.273438 4.625 -5.015625 C 4.625 -5.773438 4.175781 -6.15625 3.28125 -6.15625 L 2.21875 -6.15625 Z M 2.21875 -3.90625 "/></g></g></g><g fill="#3d3d3d" fill-opacity="1"><g transform="translate(200.752928, 311.321488)"><g><path d="M 5.578125 -5.03125 C 5.484375 -5.382812 5.300781 -5.660156 5.03125 -5.859375 C 4.757812 -6.054688 4.421875 -6.15625 4.015625 -6.15625 C 3.453125 -6.15625 2.992188 -5.941406 2.640625 -5.515625 C 2.285156 -5.097656 2.109375 -4.503906 2.109375 -3.734375 C 2.109375 -2.953125 2.28125 -2.347656 2.625 -1.921875 C 2.976562 -1.503906 3.445312 -1.296875 4.03125 -1.296875 C 4.5625 -1.296875 4.972656 -1.429688 5.265625 -1.703125 C 5.566406 -1.972656 5.722656 -2.335938 5.734375 -2.796875 L 4.140625 -2.796875 L 4.140625 -3.984375 L 7.25 -3.984375 L 7.25 -3.046875 C 7.25 -2.390625 7.109375 -1.828125 6.828125 -1.359375 C 6.554688 -0.890625 6.175781 -0.523438 5.6875 -0.265625 C 5.207031 -0.015625 4.65625 0.109375 4.03125 0.109375 C 3.332031 0.109375 2.71875 -0.046875 2.1875 -0.359375 C 1.664062 -0.671875 1.253906 -1.109375 0.953125 -1.671875 C 0.660156 -2.242188 0.515625 -2.925781 0.515625 -3.71875 C 0.515625 -4.519531 0.664062 -5.207031 0.96875 -5.78125 C 1.28125 -6.351562 1.695312 -6.789062 2.21875 -7.09375 C 2.75 -7.394531 3.34375 -7.546875 4 -7.546875 C 4.5625 -7.546875 5.066406 -7.4375 5.515625 -7.21875 C 5.972656 -7.007812 6.347656 -6.71875 6.640625 -6.34375 C 6.929688 -5.96875 7.113281 -5.53125 7.1875 -5.03125 Z M 5.578125 -5.03125 "/></g></g></g><g fill="#3d3d3d" fill-opacity="1"><g transform="translate(19.793632, 273.823459)"><g><path d="M 4.6875 -5.296875 C 4.65625 -5.597656 4.523438 -5.828125 4.296875 -5.984375 C 4.078125 -6.148438 3.78125 -6.234375 3.40625 -6.234375 C 3.019531 -6.234375 2.722656 -6.148438 2.515625 -5.984375 C 2.316406 -5.828125 2.21875 -5.628906 2.21875 -5.390625 C 2.207031 -5.128906 2.316406 -4.929688 2.546875 -4.796875 C 2.785156 -4.660156 3.066406 -4.550781 3.390625 -4.46875 L 4.0625 -4.3125 C 4.488281 -4.21875 4.867188 -4.078125 5.203125 -3.890625 C 5.546875 -3.703125 5.8125 -3.460938 6 -3.171875 C 6.195312 -2.890625 6.296875 -2.539062 6.296875 -2.125 C 6.296875 -1.445312 6.039062 -0.90625 5.53125 -0.5 C 5.019531 -0.09375 4.3125 0.109375 3.40625 0.109375 C 2.5 0.109375 1.773438 -0.09375 1.234375 -0.5 C 0.703125 -0.914062 0.425781 -1.53125 0.40625 -2.34375 L 1.9375 -2.34375 C 1.957031 -1.96875 2.097656 -1.6875 2.359375 -1.5 C 2.628906 -1.3125 2.972656 -1.21875 3.390625 -1.21875 C 3.785156 -1.21875 4.101562 -1.300781 4.34375 -1.46875 C 4.582031 -1.632812 4.703125 -1.851562 4.703125 -2.125 C 4.703125 -2.375 4.59375 -2.566406 4.375 -2.703125 C 4.15625 -2.847656 3.84375 -2.96875 3.4375 -3.0625 L 2.625 -3.265625 C 2 -3.410156 1.503906 -3.644531 1.140625 -3.96875 C 0.773438 -4.300781 0.597656 -4.742188 0.609375 -5.296875 C 0.597656 -5.742188 0.710938 -6.132812 0.953125 -6.46875 C 1.203125 -6.8125 1.539062 -7.078125 1.96875 -7.265625 C 2.394531 -7.453125 2.878906 -7.546875 3.421875 -7.546875 C 3.972656 -7.546875 4.453125 -7.453125 4.859375 -7.265625 C 5.273438 -7.078125 5.597656 -6.8125 5.828125 -6.46875 C 6.066406 -6.132812 6.1875 -5.742188 6.1875 -5.296875 Z M 4.6875 -5.296875 "/></g></g></g><g fill="#3d3d3d" fill-opacity="1"><g transform="translate(26.497356, 273.823459)"><g><path d="M 1.9375 0 L 0.25 0 L 2.8125 -7.4375 L 4.84375 -7.4375 L 7.40625 0 L 5.71875 0 L 5.171875 -1.703125 L 2.484375 -1.703125 Z M 2.875 -2.921875 L 4.765625 -2.921875 L 3.859375 -5.75 L 3.796875 -5.75 Z M 2.875 -2.921875 "/></g></g></g><g fill="#3d3d3d" fill-opacity="1"><g transform="translate(34.153557, 273.823459)"><g><path d="M 0.640625 0 L 0.640625 -7.4375 L 2.21875 -7.4375 L 2.21875 -1.296875 L 5.40625 -1.296875 L 5.40625 0 Z M 0.640625 0 "/></g></g></g><g fill="#3d3d3d" fill-opacity="1"><g transform="translate(39.962968, 273.823459)"><g><path d="M 3.28125 0 L 0.640625 0 L 0.640625 -7.4375 L 3.3125 -7.4375 C 4.0625 -7.4375 4.707031 -7.285156 5.25 -6.984375 C 5.789062 -6.691406 6.203125 -6.269531 6.484375 -5.71875 C 6.773438 -5.164062 6.921875 -4.503906 6.921875 -3.734375 C 6.921875 -2.953125 6.773438 -2.28125 6.484375 -1.71875 C 6.191406 -1.164062 5.773438 -0.738281 5.234375 -0.4375 C 4.691406 -0.144531 4.039062 0 3.28125 0 Z M 2.21875 -1.34375 L 3.21875 -1.34375 C 3.914062 -1.34375 4.445312 -1.53125 4.8125 -1.90625 C 5.175781 -2.289062 5.359375 -2.898438 5.359375 -3.734375 C 5.359375 -4.554688 5.175781 -5.15625 4.8125 -5.53125 C 4.445312 -5.90625 3.914062 -6.09375 3.21875 -6.09375 L 2.21875 -6.09375 Z M 2.21875 -1.34375 "/></g></g></g><g fill="#3d3d3d" fill-opacity="1"><g transform="translate(47.408318, 273.823459)"><g><path d="M 1.9375 0 L 0.25 0 L 2.8125 -7.4375 L 4.84375 -7.4375 L 7.40625 0 L 5.71875 0 L 5.171875 -1.703125 L 2.484375 -1.703125 Z M 2.875 -2.921875 L 4.765625 -2.921875 L 3.859375 -5.75 L 3.796875 -5.75 Z M 2.875 -2.921875 "/></g></g></g><g fill="#3d3d3d" fill-opacity="1"><g transform="translate(55.06452, 273.823459)"><g><path d="M 6.875 -7.4375 L 6.875 0 L 5.515625 0 L 2.28125 -4.6875 L 2.21875 -4.6875 L 2.21875 0 L 0.640625 0 L 0.640625 -7.4375 L 2.03125 -7.4375 L 5.234375 -2.765625 L 5.3125 -2.765625 L 5.3125 -7.4375 Z M 6.875 -7.4375 "/></g></g></g><g fill="#3d3d3d" fill-opacity="1"><g transform="translate(62.589849, 273.823459)"><g><path d="M 0.640625 0 L 0.640625 -7.4375 L 2.21875 -7.4375 L 2.21875 -4.375 L 5.421875 -4.375 L 5.421875 -7.4375 L 6.984375 -7.4375 L 6.984375 0 L 5.421875 0 L 5.421875 -3.078125 L 2.21875 -3.078125 L 2.21875 0 Z M 0.640625 0 "/></g></g></g><g fill="#3d3d3d" fill-opacity="1"><g transform="translate(70.227877, 273.823459)"><g><path d="M 1.9375 0 L 0.25 0 L 2.8125 -7.4375 L 4.84375 -7.4375 L 7.40625 0 L 5.71875 0 L 5.171875 -1.703125 L 2.484375 -1.703125 Z M 2.875 -2.921875 L 4.765625 -2.921875 L 3.859375 -5.75 L 3.796875 -5.75 Z M 2.875 -2.921875 "/></g></g></g><g fill="#3d3d3d" fill-opacity="1"><g transform="translate(73.597149, 296.931579)"><g><path d="M 0.640625 0 L 0.640625 -7.4375 L 2.21875 -7.4375 L 2.21875 -4.375 L 5.421875 -4.375 L 5.421875 -7.4375 L 6.984375 -7.4375 L 6.984375 0 L 5.421875 0 L 5.421875 -3.078125 L 2.21875 -3.078125 L 2.21875 0 Z M 0.640625 0 "/></g></g></g><g fill="#3d3d3d" fill-opacity="1"><g transform="translate(81.235177, 296.931579)"><g><path d="M 7.484375 -3.71875 C 7.484375 -2.90625 7.328125 -2.210938 7.015625 -1.640625 C 6.710938 -1.078125 6.296875 -0.644531 5.765625 -0.34375 C 5.242188 -0.0390625 4.65625 0.109375 4 0.109375 C 3.34375 0.109375 2.75 -0.0390625 2.21875 -0.34375 C 1.695312 -0.644531 1.28125 -1.082031 0.96875 -1.65625 C 0.664062 -2.226562 0.515625 -2.914062 0.515625 -3.71875 C 0.515625 -4.53125 0.664062 -5.21875 0.96875 -5.78125 C 1.28125 -6.351562 1.695312 -6.789062 2.21875 -7.09375 C 2.75 -7.394531 3.34375 -7.546875 4 -7.546875 C 4.65625 -7.546875 5.242188 -7.394531 5.765625 -7.09375 C 6.296875 -6.789062 6.710938 -6.351562 7.015625 -5.78125 C 7.328125 -5.21875 7.484375 -4.53125 7.484375 -3.71875 Z M 5.890625 -3.71875 C 5.890625 -4.507812 5.71875 -5.113281 5.375 -5.53125 C 5.03125 -5.945312 4.570312 -6.15625 4 -6.15625 C 3.425781 -6.15625 2.96875 -5.945312 2.625 -5.53125 C 2.28125 -5.113281 2.109375 -4.507812 2.109375 -3.71875 C 2.109375 -2.9375 2.28125 -2.335938 2.625 -1.921875 C 2.96875 -1.503906 3.425781 -1.296875 4 -1.296875 C 4.570312 -1.296875 5.03125 -1.503906 5.375 -1.921875 C 5.71875 -2.335938 5.890625 -2.9375 5.890625 -3.71875 Z M 5.890625 -3.71875 "/></g></g></g><g fill="#3d3d3d" fill-opacity="1"><g transform="translate(89.240379, 296.931579)"><g><path d="M 0.640625 0 L 0.640625 -7.4375 L 3.578125 -7.4375 C 4.148438 -7.4375 4.632812 -7.328125 5.03125 -7.109375 C 5.425781 -6.898438 5.726562 -6.601562 5.9375 -6.21875 C 6.144531 -5.84375 6.25 -5.410156 6.25 -4.921875 C 6.25 -4.421875 6.140625 -3.984375 5.921875 -3.609375 C 5.710938 -3.234375 5.40625 -2.9375 5 -2.71875 C 4.601562 -2.507812 4.117188 -2.40625 3.546875 -2.40625 L 2.21875 -2.40625 L 2.21875 0 Z M 2.21875 -3.671875 L 3.296875 -3.671875 C 3.742188 -3.671875 4.078125 -3.785156 4.296875 -4.015625 C 4.515625 -4.253906 4.625 -4.554688 4.625 -4.921875 C 4.625 -5.296875 4.515625 -5.59375 4.296875 -5.8125 C 4.078125 -6.039062 3.738281 -6.15625 3.28125 -6.15625 L 2.21875 -6.15625 Z M 2.21875 -3.671875 "/></g></g></g><g fill="#3d3d3d" fill-opacity="1"><g transform="translate(95.871394, 296.931579)"><g><path d="M 0.640625 0 L 0.640625 -7.4375 L 5.65625 -7.4375 L 5.65625 -6.140625 L 2.21875 -6.140625 L 2.21875 -4.375 L 5.40625 -4.375 L 5.40625 -3.078125 L 2.21875 -3.078125 L 2.21875 -1.296875 L 5.671875 -1.296875 L 5.671875 0 Z M 0.640625 0 "/></g></g></g><g fill="#3d3d3d" fill-opacity="1"><g transform="translate(102.142505, 296.931579)"><g><path d="M 0.640625 0 L 0.640625 -7.4375 L 5.578125 -7.4375 L 5.578125 -6.140625 L 2.21875 -6.140625 L 2.21875 -4.375 L 5.25 -4.375 L 5.25 -3.078125 L 2.21875 -3.078125 L 2.21875 0 Z M 0.640625 0 "/></g></g></g><g fill="#3d3d3d" fill-opacity="1"><g transform="translate(108.130046, 296.931579)"><g><path d="M 2.21875 -7.4375 L 2.21875 0 L 0.640625 0 L 0.640625 -7.4375 Z M 2.21875 -7.4375 "/></g></g></g><g fill="#3d3d3d" fill-opacity="1"><g transform="translate(111.002031, 296.931579)"><g><path d="M 0.640625 0 L 0.640625 -7.4375 L 5.65625 -7.4375 L 5.65625 -6.140625 L 2.21875 -6.140625 L 2.21875 -4.375 L 5.40625 -4.375 L 5.40625 -3.078125 L 2.21875 -3.078125 L 2.21875 -1.296875 L 5.671875 -1.296875 L 5.671875 0 Z M 0.640625 0 "/></g></g></g><g fill="#3d3d3d" fill-opacity="1"><g transform="translate(117.273142, 296.931579)"><g><path d="M 0.640625 0 L 0.640625 -7.4375 L 2.21875 -7.4375 L 2.21875 -1.296875 L 5.40625 -1.296875 L 5.40625 0 Z M 0.640625 0 "/></g></g></g><g fill="#3d3d3d" fill-opacity="1"><g transform="translate(123.082552, 296.931579)"><g><path d="M 3.28125 0 L 0.640625 0 L 0.640625 -7.4375 L 3.3125 -7.4375 C 4.0625 -7.4375 4.707031 -7.285156 5.25 -6.984375 C 5.789062 -6.691406 6.203125 -6.269531 6.484375 -5.71875 C 6.773438 -5.164062 6.921875 -4.503906 6.921875 -3.734375 C 6.921875 -2.953125 6.773438 -2.28125 6.484375 -1.71875 C 6.191406 -1.164062 5.773438 -0.738281 5.234375 -0.4375 C 4.691406 -0.144531 4.039062 0 3.28125 0 Z M 2.21875 -1.34375 L 3.21875 -1.34375 C 3.914062 -1.34375 4.445312 -1.53125 4.8125 -1.90625 C 5.175781 -2.289062 5.359375 -2.898438 5.359375 -3.734375 C 5.359375 -4.554688 5.175781 -5.15625 4.8125 -5.53125 C 4.445312 -5.90625 3.914062 -6.09375 3.21875 -6.09375 L 2.21875 -6.09375 Z M 2.21875 -1.34375 "/></g></g></g><g fill="#3d3d3d" fill-opacity="1"><g transform="translate(221.863307, 345.865708)"><g><path d="M 7.21875 -4.84375 L 5.625 -4.84375 C 5.5625 -5.25 5.382812 -5.566406 5.09375 -5.796875 C 4.8125 -6.035156 4.453125 -6.15625 4.015625 -6.15625 C 3.441406 -6.15625 2.976562 -5.941406 2.625 -5.515625 C 2.28125 -5.097656 2.109375 -4.5 2.109375 -3.71875 C 2.109375 -2.925781 2.28125 -2.320312 2.625 -1.90625 C 2.976562 -1.5 3.441406 -1.296875 4.015625 -1.296875 C 4.429688 -1.296875 4.785156 -1.40625 5.078125 -1.625 C 5.367188 -1.84375 5.550781 -2.148438 5.625 -2.546875 L 7.21875 -2.53125 C 7.15625 -2.082031 6.988281 -1.65625 6.71875 -1.25 C 6.457031 -0.84375 6.09375 -0.515625 5.625 -0.265625 C 5.164062 -0.015625 4.617188 0.109375 3.984375 0.109375 C 3.316406 0.109375 2.722656 -0.0390625 2.203125 -0.34375 C 1.679688 -0.644531 1.269531 -1.078125 0.96875 -1.640625 C 0.664062 -2.210938 0.515625 -2.90625 0.515625 -3.71875 C 0.515625 -4.53125 0.664062 -5.21875 0.96875 -5.78125 C 1.28125 -6.351562 1.695312 -6.789062 2.21875 -7.09375 C 2.738281 -7.394531 3.328125 -7.546875 3.984375 -7.546875 C 4.554688 -7.546875 5.070312 -7.4375 5.53125 -7.21875 C 6 -7.007812 6.378906 -6.703125 6.671875 -6.296875 C 6.960938 -5.898438 7.144531 -5.414062 7.21875 -4.84375 Z M 7.21875 -4.84375 "/></g></g></g><g fill="#3d3d3d" fill-opacity="1"><g transform="translate(229.563141, 345.865708)"><g><path d="M 0.640625 0 L 0.640625 -7.4375 L 5.65625 -7.4375 L 5.65625 -6.140625 L 2.21875 -6.140625 L 2.21875 -4.375 L 5.40625 -4.375 L 5.40625 -3.078125 L 2.21875 -3.078125 L 2.21875 -1.296875 L 5.671875 -1.296875 L 5.671875 0 Z M 0.640625 0 "/></g></g></g><g fill="#3d3d3d" fill-opacity="1"><g transform="translate(235.834252, 345.865708)"><g><path d="M 0.640625 0 L 0.640625 -7.4375 L 3.578125 -7.4375 C 4.429688 -7.4375 5.085938 -7.21875 5.546875 -6.78125 C 6.015625 -6.34375 6.25 -5.753906 6.25 -5.015625 C 6.25 -4.503906 6.132812 -4.066406 5.90625 -3.703125 C 5.6875 -3.347656 5.363281 -3.078125 4.9375 -2.890625 L 6.515625 0 L 4.78125 0 L 3.375 -2.640625 L 2.21875 -2.640625 L 2.21875 0 Z M 2.21875 -3.90625 L 3.296875 -3.90625 C 4.179688 -3.90625 4.625 -4.273438 4.625 -5.015625 C 4.625 -5.773438 4.175781 -6.15625 3.28125 -6.15625 L 2.21875 -6.15625 Z M 2.21875 -3.90625 "/></g></g></g><g fill="#3d3d3d" fill-opacity="1"><g transform="translate(242.552515, 345.865708)"><g><path d="M 0.640625 0 L 0.640625 -7.4375 L 5.65625 -7.4375 L 5.65625 -6.140625 L 2.21875 -6.140625 L 2.21875 -4.375 L 5.40625 -4.375 L 5.40625 -3.078125 L 2.21875 -3.078125 L 2.21875 -1.296875 L 5.671875 -1.296875 L 5.671875 0 Z M 0.640625 0 "/></g></g></g><g fill="#3d3d3d" fill-opacity="1"><g transform="translate(248.823625, 345.865708)"><g><path d="M 4.6875 -5.296875 C 4.65625 -5.597656 4.523438 -5.828125 4.296875 -5.984375 C 4.078125 -6.148438 3.78125 -6.234375 3.40625 -6.234375 C 3.019531 -6.234375 2.722656 -6.148438 2.515625 -5.984375 C 2.316406 -5.828125 2.21875 -5.628906 2.21875 -5.390625 C 2.207031 -5.128906 2.316406 -4.929688 2.546875 -4.796875 C 2.785156 -4.660156 3.066406 -4.550781 3.390625 -4.46875 L 4.0625 -4.3125 C 4.488281 -4.21875 4.867188 -4.078125 5.203125 -3.890625 C 5.546875 -3.703125 5.8125 -3.460938 6 -3.171875 C 6.195312 -2.890625 6.296875 -2.539062 6.296875 -2.125 C 6.296875 -1.445312 6.039062 -0.90625 5.53125 -0.5 C 5.019531 -0.09375 4.3125 0.109375 3.40625 0.109375 C 2.5 0.109375 1.773438 -0.09375 1.234375 -0.5 C 0.703125 -0.914062 0.425781 -1.53125 0.40625 -2.34375 L 1.9375 -2.34375 C 1.957031 -1.96875 2.097656 -1.6875 2.359375 -1.5 C 2.628906 -1.3125 2.972656 -1.21875 3.390625 -1.21875 C 3.785156 -1.21875 4.101562 -1.300781 4.34375 -1.46875 C 4.582031 -1.632812 4.703125 -1.851562 4.703125 -2.125 C 4.703125 -2.375 4.59375 -2.566406 4.375 -2.703125 C 4.15625 -2.847656 3.84375 -2.96875 3.4375 -3.0625 L 2.625 -3.265625 C 2 -3.410156 1.503906 -3.644531 1.140625 -3.96875 C 0.773438 -4.300781 0.597656 -4.742188 0.609375 -5.296875 C 0.597656 -5.742188 0.710938 -6.132812 0.953125 -6.46875 C 1.203125 -6.8125 1.539062 -7.078125 1.96875 -7.265625 C 2.394531 -7.453125 2.878906 -7.546875 3.421875 -7.546875 C 3.972656 -7.546875 4.453125 -7.453125 4.859375 -7.265625 C 5.273438 -7.078125 5.597656 -6.8125 5.828125 -6.46875 C 6.066406 -6.132812 6.1875 -5.742188 6.1875 -5.296875 Z M 4.6875 -5.296875 "/></g></g></g><g fill="#3d3d3d" fill-opacity="1"><g transform="translate(319.465142, 445.761534)"><g><path d="M 4.6875 -5.296875 C 4.65625 -5.597656 4.523438 -5.828125 4.296875 -5.984375 C 4.078125 -6.148438 3.78125 -6.234375 3.40625 -6.234375 C 3.019531 -6.234375 2.722656 -6.148438 2.515625 -5.984375 C 2.316406 -5.828125 2.21875 -5.628906 2.21875 -5.390625 C 2.207031 -5.128906 2.316406 -4.929688 2.546875 -4.796875 C 2.785156 -4.660156 3.066406 -4.550781 3.390625 -4.46875 L 4.0625 -4.3125 C 4.488281 -4.21875 4.867188 -4.078125 5.203125 -3.890625 C 5.546875 -3.703125 5.8125 -3.460938 6 -3.171875 C 6.195312 -2.890625 6.296875 -2.539062 6.296875 -2.125 C 6.296875 -1.445312 6.039062 -0.90625 5.53125 -0.5 C 5.019531 -0.09375 4.3125 0.109375 3.40625 0.109375 C 2.5 0.109375 1.773438 -0.09375 1.234375 -0.5 C 0.703125 -0.914062 0.425781 -1.53125 0.40625 -2.34375 L 1.9375 -2.34375 C 1.957031 -1.96875 2.097656 -1.6875 2.359375 -1.5 C 2.628906 -1.3125 2.972656 -1.21875 3.390625 -1.21875 C 3.785156 -1.21875 4.101562 -1.300781 4.34375 -1.46875 C 4.582031 -1.632812 4.703125 -1.851562 4.703125 -2.125 C 4.703125 -2.375 4.59375 -2.566406 4.375 -2.703125 C 4.15625 -2.847656 3.84375 -2.96875 3.4375 -3.0625 L 2.625 -3.265625 C 2 -3.410156 1.503906 -3.644531 1.140625 -3.96875 C 0.773438 -4.300781 0.597656 -4.742188 0.609375 -5.296875 C 0.597656 -5.742188 0.710938 -6.132812 0.953125 -6.46875 C 1.203125 -6.8125 1.539062 -7.078125 1.96875 -7.265625 C 2.394531 -7.453125 2.878906 -7.546875 3.421875 -7.546875 C 3.972656 -7.546875 4.453125 -7.453125 4.859375 -7.265625 C 5.273438 -7.078125 5.597656 -6.8125 5.828125 -6.46875 C 6.066406 -6.132812 6.1875 -5.742188 6.1875 -5.296875 Z M 4.6875 -5.296875 "/></g></g></g><g fill="#3d3d3d" fill-opacity="1"><g transform="translate(326.168867, 445.761534)"><g><path d="M 2.328125 0 L 0.1875 -7.4375 L 1.90625 -7.4375 L 3.140625 -2.265625 L 3.203125 -2.265625 L 4.5625 -7.4375 L 6.03125 -7.4375 L 7.390625 -2.265625 L 7.453125 -2.265625 L 8.6875 -7.4375 L 10.40625 -7.4375 L 8.28125 0 L 6.75 0 L 5.328125 -4.859375 L 5.265625 -4.859375 L 3.859375 0 Z M 2.328125 0 "/></g></g></g><g fill="#3d3d3d" fill-opacity="1"><g transform="translate(336.773397, 445.761534)"><g><path d="M 0.640625 0 L 0.640625 -7.4375 L 5.65625 -7.4375 L 5.65625 -6.140625 L 2.21875 -6.140625 L 2.21875 -4.375 L 5.40625 -4.375 L 5.40625 -3.078125 L 2.21875 -3.078125 L 2.21875 -1.296875 L 5.671875 -1.296875 L 5.671875 0 Z M 0.640625 0 "/></g></g></g><g fill="#3d3d3d" fill-opacity="1"><g transform="translate(343.044508, 445.761534)"><g><path d="M 0.640625 0 L 0.640625 -7.4375 L 2.21875 -7.4375 L 2.21875 -1.296875 L 5.40625 -1.296875 L 5.40625 0 Z M 0.640625 0 "/></g></g></g><g fill="#3d3d3d" fill-opacity="1"><g transform="translate(348.853919, 445.761534)"><g><path d="M 0.640625 0 L 0.640625 -7.4375 L 2.21875 -7.4375 L 2.21875 -1.296875 L 5.40625 -1.296875 L 5.40625 0 Z M 0.640625 0 "/></g></g></g><g fill="#3d3d3d" fill-opacity="1"><g transform="translate(354.663329, 445.761534)"><g><path d="M 0.640625 0 L 0.640625 -7.4375 L 5.65625 -7.4375 L 5.65625 -6.140625 L 2.21875 -6.140625 L 2.21875 -4.375 L 5.40625 -4.375 L 5.40625 -3.078125 L 2.21875 -3.078125 L 2.21875 -1.296875 L 5.671875 -1.296875 L 5.671875 0 Z M 0.640625 0 "/></g></g></g><g fill="#3d3d3d" fill-opacity="1"><g transform="translate(360.93444, 445.761534)"><g><path d="M 6.875 -7.4375 L 6.875 0 L 5.515625 0 L 2.28125 -4.6875 L 2.21875 -4.6875 L 2.21875 0 L 0.640625 0 L 0.640625 -7.4375 L 2.03125 -7.4375 L 5.234375 -2.765625 L 5.3125 -2.765625 L 5.3125 -7.4375 Z M 6.875 -7.4375 "/></g></g></g><g fill="#3d3d3d" fill-opacity="1"><g transform="translate(368.459769, 445.761534)"><g><path d="M 3.28125 0 L 0.640625 0 L 0.640625 -7.4375 L 3.3125 -7.4375 C 4.0625 -7.4375 4.707031 -7.285156 5.25 -6.984375 C 5.789062 -6.691406 6.203125 -6.269531 6.484375 -5.71875 C 6.773438 -5.164062 6.921875 -4.503906 6.921875 -3.734375 C 6.921875 -2.953125 6.773438 -2.28125 6.484375 -1.71875 C 6.191406 -1.164062 5.773438 -0.738281 5.234375 -0.4375 C 4.691406 -0.144531 4.039062 0 3.28125 0 Z M 2.21875 -1.34375 L 3.21875 -1.34375 C 3.914062 -1.34375 4.445312 -1.53125 4.8125 -1.90625 C 5.175781 -2.289062 5.359375 -2.898438 5.359375 -3.734375 C 5.359375 -4.554688 5.175781 -5.15625 4.8125 -5.53125 C 4.445312 -5.90625 3.914062 -6.09375 3.21875 -6.09375 L 2.21875 -6.09375 Z M 2.21875 -1.34375 "/></g></g></g><g fill="#3d3d3d" fill-opacity="1"><g transform="translate(375.905119, 445.761534)"><g><path d="M 1.9375 0 L 0.25 0 L 2.8125 -7.4375 L 4.84375 -7.4375 L 7.40625 0 L 5.71875 0 L 5.171875 -1.703125 L 2.484375 -1.703125 Z M 2.875 -2.921875 L 4.765625 -2.921875 L 3.859375 -5.75 L 3.796875 -5.75 Z M 2.875 -2.921875 "/></g></g></g><g fill="#3d3d3d" fill-opacity="1"><g transform="translate(383.56132, 445.761534)"><g><path d="M 0.640625 -7.4375 L 2.59375 -7.4375 L 4.640625 -2.4375 L 4.71875 -2.4375 L 6.78125 -7.4375 L 8.71875 -7.4375 L 8.71875 0 L 7.1875 0 L 7.1875 -4.84375 L 7.125 -4.84375 L 5.203125 -0.03125 L 4.15625 -0.03125 L 2.234375 -4.859375 L 2.171875 -4.859375 L 2.171875 0 L 0.640625 0 Z M 0.640625 -7.4375 "/></g></g></g><g fill="#3d3d3d" fill-opacity="1"><g transform="translate(99.141272, 81.97833)"><g><path d="M 1.984375 -7.4375 L 3.796875 -1.78125 L 3.859375 -1.78125 L 5.65625 -7.4375 L 7.40625 -7.4375 L 4.84375 0 L 2.8125 0 L 0.25 -7.4375 Z M 1.984375 -7.4375 "/></g></g></g><g fill="#3d3d3d" fill-opacity="1"><g transform="translate(106.797473, 81.97833)"><g><path d="M 0.640625 0 L 0.640625 -7.4375 L 3.578125 -7.4375 C 4.429688 -7.4375 5.085938 -7.21875 5.546875 -6.78125 C 6.015625 -6.34375 6.25 -5.753906 6.25 -5.015625 C 6.25 -4.503906 6.132812 -4.066406 5.90625 -3.703125 C 5.6875 -3.347656 5.363281 -3.078125 4.9375 -2.890625 L 6.515625 0 L 4.78125 0 L 3.375 -2.640625 L 2.21875 -2.640625 L 2.21875 0 Z M 2.21875 -3.90625 L 3.296875 -3.90625 C 4.179688 -3.90625 4.625 -4.273438 4.625 -5.015625 C 4.625 -5.773438 4.175781 -6.15625 3.28125 -6.15625 L 2.21875 -6.15625 Z M 2.21875 -3.90625 "/></g></g></g><g fill="#3d3d3d" fill-opacity="1"><g transform="translate(113.515736, 81.97833)"><g><path d="M 0.640625 0 L 0.640625 -7.4375 L 5.65625 -7.4375 L 5.65625 -6.140625 L 2.21875 -6.140625 L 2.21875 -4.375 L 5.40625 -4.375 L 5.40625 -3.078125 L 2.21875 -3.078125 L 2.21875 -1.296875 L 5.671875 -1.296875 L 5.671875 0 Z M 0.640625 0 "/></g></g></g><g fill="#3d3d3d" fill-opacity="1"><g transform="translate(119.786846, 81.97833)"><g><path d="M 3.28125 0 L 0.640625 0 L 0.640625 -7.4375 L 3.3125 -7.4375 C 4.0625 -7.4375 4.707031 -7.285156 5.25 -6.984375 C 5.789062 -6.691406 6.203125 -6.269531 6.484375 -5.71875 C 6.773438 -5.164062 6.921875 -4.503906 6.921875 -3.734375 C 6.921875 -2.953125 6.773438 -2.28125 6.484375 -1.71875 C 6.191406 -1.164062 5.773438 -0.738281 5.234375 -0.4375 C 4.691406 -0.144531 4.039062 0 3.28125 0 Z M 2.21875 -1.34375 L 3.21875 -1.34375 C 3.914062 -1.34375 4.445312 -1.53125 4.8125 -1.90625 C 5.175781 -2.289062 5.359375 -2.898438 5.359375 -3.734375 C 5.359375 -4.554688 5.175781 -5.15625 4.8125 -5.53125 C 4.445312 -5.90625 3.914062 -6.09375 3.21875 -6.09375 L 2.21875 -6.09375 Z M 2.21875 -1.34375 "/></g></g></g><g fill="#3d3d3d" fill-opacity="1"><g transform="translate(127.232197, 81.97833)"><g><path d="M 0.640625 0 L 0.640625 -7.4375 L 5.65625 -7.4375 L 5.65625 -6.140625 L 2.21875 -6.140625 L 2.21875 -4.375 L 5.40625 -4.375 L 5.40625 -3.078125 L 2.21875 -3.078125 L 2.21875 -1.296875 L 5.671875 -1.296875 L 5.671875 0 Z M 0.640625 0 "/></g></g></g><g fill="#3d3d3d" fill-opacity="1"><g transform="translate(133.503307, 81.97833)"><g><path d="M 6.875 -7.4375 L 6.875 0 L 5.515625 0 L 2.28125 -4.6875 L 2.21875 -4.6875 L 2.21875 0 L 0.640625 0 L 0.640625 -7.4375 L 2.03125 -7.4375 L 5.234375 -2.765625 L 5.3125 -2.765625 L 5.3125 -7.4375 Z M 6.875 -7.4375 "/></g></g></g><g fill="#3d3d3d" fill-opacity="1"><g transform="translate(141.028636, 81.97833)"><g><path d="M 3.28125 0 L 0.640625 0 L 0.640625 -7.4375 L 3.3125 -7.4375 C 4.0625 -7.4375 4.707031 -7.285156 5.25 -6.984375 C 5.789062 -6.691406 6.203125 -6.269531 6.484375 -5.71875 C 6.773438 -5.164062 6.921875 -4.503906 6.921875 -3.734375 C 6.921875 -2.953125 6.773438 -2.28125 6.484375 -1.71875 C 6.191406 -1.164062 5.773438 -0.738281 5.234375 -0.4375 C 4.691406 -0.144531 4.039062 0 3.28125 0 Z M 2.21875 -1.34375 L 3.21875 -1.34375 C 3.914062 -1.34375 4.445312 -1.53125 4.8125 -1.90625 C 5.175781 -2.289062 5.359375 -2.898438 5.359375 -3.734375 C 5.359375 -4.554688 5.175781 -5.15625 4.8125 -5.53125 C 4.445312 -5.90625 3.914062 -6.09375 3.21875 -6.09375 L 2.21875 -6.09375 Z M 2.21875 -1.34375 "/></g></g></g><g fill="#3d3d3d" fill-opacity="1"><g transform="translate(148.473986, 81.97833)"><g><path d="M 1.9375 0 L 0.25 0 L 2.8125 -7.4375 L 4.84375 -7.4375 L 7.40625 0 L 5.71875 0 L 5.171875 -1.703125 L 2.484375 -1.703125 Z M 2.875 -2.921875 L 4.765625 -2.921875 L 3.859375 -5.75 L 3.796875 -5.75 Z M 2.875 -2.921875 "/></g></g></g><g fill="#3d3d3d" fill-opacity="1"><g transform="translate(156.130187, 81.97833)"><g><path d="M 0.640625 0 L 0.640625 -7.4375 L 2.21875 -7.4375 L 2.21875 -1.296875 L 5.40625 -1.296875 L 5.40625 0 Z M 0.640625 0 "/></g></g></g><g fill="#3d3d3d" fill-opacity="1"><g transform="translate(80.073933, 160.041713)"><g><path d="M 7.21875 -4.84375 L 5.625 -4.84375 C 5.5625 -5.25 5.382812 -5.566406 5.09375 -5.796875 C 4.8125 -6.035156 4.453125 -6.15625 4.015625 -6.15625 C 3.441406 -6.15625 2.976562 -5.941406 2.625 -5.515625 C 2.28125 -5.097656 2.109375 -4.5 2.109375 -3.71875 C 2.109375 -2.925781 2.28125 -2.320312 2.625 -1.90625 C 2.976562 -1.5 3.441406 -1.296875 4.015625 -1.296875 C 4.429688 -1.296875 4.785156 -1.40625 5.078125 -1.625 C 5.367188 -1.84375 5.550781 -2.148438 5.625 -2.546875 L 7.21875 -2.53125 C 7.15625 -2.082031 6.988281 -1.65625 6.71875 -1.25 C 6.457031 -0.84375 6.09375 -0.515625 5.625 -0.265625 C 5.164062 -0.015625 4.617188 0.109375 3.984375 0.109375 C 3.316406 0.109375 2.722656 -0.0390625 2.203125 -0.34375 C 1.679688 -0.644531 1.269531 -1.078125 0.96875 -1.640625 C 0.664062 -2.210938 0.515625 -2.90625 0.515625 -3.71875 C 0.515625 -4.53125 0.664062 -5.21875 0.96875 -5.78125 C 1.28125 -6.351562 1.695312 -6.789062 2.21875 -7.09375 C 2.738281 -7.394531 3.328125 -7.546875 3.984375 -7.546875 C 4.554688 -7.546875 5.070312 -7.4375 5.53125 -7.21875 C 6 -7.007812 6.378906 -6.703125 6.671875 -6.296875 C 6.960938 -5.898438 7.144531 -5.414062 7.21875 -4.84375 Z M 7.21875 -4.84375 "/></g></g></g><g fill="#3d3d3d" fill-opacity="1"><g transform="translate(87.773767, 160.041713)"><g><path d="M 0.640625 0 L 0.640625 -7.4375 L 2.21875 -7.4375 L 2.21875 -1.296875 L 5.40625 -1.296875 L 5.40625 0 Z M 0.640625 0 "/></g></g></g><g fill="#3d3d3d" fill-opacity="1"><g transform="translate(93.583178, 160.041713)"><g><path d="M 1.9375 0 L 0.25 0 L 2.8125 -7.4375 L 4.84375 -7.4375 L 7.40625 0 L 5.71875 0 L 5.171875 -1.703125 L 2.484375 -1.703125 Z M 2.875 -2.921875 L 4.765625 -2.921875 L 3.859375 -5.75 L 3.796875 -5.75 Z M 2.875 -2.921875 "/></g></g></g><g fill="#3d3d3d" fill-opacity="1"><g transform="translate(101.239379, 160.041713)"><g><path d="M 6.875 -7.4375 L 6.875 0 L 5.515625 0 L 2.28125 -4.6875 L 2.21875 -4.6875 L 2.21875 0 L 0.640625 0 L 0.640625 -7.4375 L 2.03125 -7.4375 L 5.234375 -2.765625 L 5.3125 -2.765625 L 5.3125 -7.4375 Z M 6.875 -7.4375 "/></g></g></g><g fill="#3d3d3d" fill-opacity="1"><g transform="translate(108.764708, 160.041713)"><g><path d="M 2.328125 0 L 0.1875 -7.4375 L 1.90625 -7.4375 L 3.140625 -2.265625 L 3.203125 -2.265625 L 4.5625 -7.4375 L 6.03125 -7.4375 L 7.390625 -2.265625 L 7.453125 -2.265625 L 8.6875 -7.4375 L 10.40625 -7.4375 L 8.28125 0 L 6.75 0 L 5.328125 -4.859375 L 5.265625 -4.859375 L 3.859375 0 Z M 2.328125 0 "/></g></g></g><g fill="#3d3d3d" fill-opacity="1"><g transform="translate(119.369239, 160.041713)"><g><path d="M 2.21875 -7.4375 L 2.21875 0 L 0.640625 0 L 0.640625 -7.4375 Z M 2.21875 -7.4375 "/></g></g></g><g fill="#3d3d3d" fill-opacity="1"><g transform="translate(122.241224, 160.041713)"><g><path d="M 0.640625 0 L 0.640625 -7.4375 L 2.21875 -7.4375 L 2.21875 -1.296875 L 5.40625 -1.296875 L 5.40625 0 Z M 0.640625 0 "/></g></g></g><g fill="#3d3d3d" fill-opacity="1"><g transform="translate(128.050635, 160.041713)"><g><path d="M 0.640625 0 L 0.640625 -7.4375 L 2.21875 -7.4375 L 2.21875 -1.296875 L 5.40625 -1.296875 L 5.40625 0 Z M 0.640625 0 "/></g></g></g><g fill="#3d3d3d" fill-opacity="1"><g transform="translate(133.860045, 160.041713)"><g><path d="M 2.21875 -7.4375 L 2.21875 0 L 0.640625 0 L 0.640625 -7.4375 Z M 2.21875 -7.4375 "/></g></g></g><g fill="#3d3d3d" fill-opacity="1"><g transform="translate(136.73203, 160.041713)"><g><path d="M 1.9375 0 L 0.25 0 L 2.8125 -7.4375 L 4.84375 -7.4375 L 7.40625 0 L 5.71875 0 L 5.171875 -1.703125 L 2.484375 -1.703125 Z M 2.875 -2.921875 L 4.765625 -2.921875 L 3.859375 -5.75 L 3.796875 -5.75 Z M 2.875 -2.921875 "/></g></g></g><g fill="#3d3d3d" fill-opacity="1"><g transform="translate(144.388232, 160.041713)"><g><path d="M 0.640625 -7.4375 L 2.59375 -7.4375 L 4.640625 -2.4375 L 4.71875 -2.4375 L 6.78125 -7.4375 L 8.71875 -7.4375 L 8.71875 0 L 7.1875 0 L 7.1875 -4.84375 L 7.125 -4.84375 L 5.203125 -0.03125 L 4.15625 -0.03125 L 2.234375 -4.859375 L 2.171875 -4.859375 L 2.171875 0 L 0.640625 0 Z M 0.640625 -7.4375 "/></g></g></g><g fill="#3d3d3d" fill-opacity="1"><g transform="translate(176.513454, 225.848734)"><g><path d="M 7.21875 -4.84375 L 5.625 -4.84375 C 5.5625 -5.25 5.382812 -5.566406 5.09375 -5.796875 C 4.8125 -6.035156 4.453125 -6.15625 4.015625 -6.15625 C 3.441406 -6.15625 2.976562 -5.941406 2.625 -5.515625 C 2.28125 -5.097656 2.109375 -4.5 2.109375 -3.71875 C 2.109375 -2.925781 2.28125 -2.320312 2.625 -1.90625 C 2.976562 -1.5 3.441406 -1.296875 4.015625 -1.296875 C 4.429688 -1.296875 4.785156 -1.40625 5.078125 -1.625 C 5.367188 -1.84375 5.550781 -2.148438 5.625 -2.546875 L 7.21875 -2.53125 C 7.15625 -2.082031 6.988281 -1.65625 6.71875 -1.25 C 6.457031 -0.84375 6.09375 -0.515625 5.625 -0.265625 C 5.164062 -0.015625 4.617188 0.109375 3.984375 0.109375 C 3.316406 0.109375 2.722656 -0.0390625 2.203125 -0.34375 C 1.679688 -0.644531 1.269531 -1.078125 0.96875 -1.640625 C 0.664062 -2.210938 0.515625 -2.90625 0.515625 -3.71875 C 0.515625 -4.53125 0.664062 -5.21875 0.96875 -5.78125 C 1.28125 -6.351562 1.695312 -6.789062 2.21875 -7.09375 C 2.738281 -7.394531 3.328125 -7.546875 3.984375 -7.546875 C 4.554688 -7.546875 5.070312 -7.4375 5.53125 -7.21875 C 6 -7.007812 6.378906 -6.703125 6.671875 -6.296875 C 6.960938 -5.898438 7.144531 -5.414062 7.21875 -4.84375 Z M 7.21875 -4.84375 "/></g></g></g><g fill="#3d3d3d" fill-opacity="1"><g transform="translate(184.213288, 225.848734)"><g><path d="M 2.21875 -7.4375 L 2.21875 0 L 0.640625 0 L 0.640625 -7.4375 Z M 2.21875 -7.4375 "/></g></g></g><g fill="#3d3d3d" fill-opacity="1"><g transform="translate(187.085273, 225.848734)"><g><path d="M 0.359375 -6.140625 L 0.359375 -7.4375 L 6.484375 -7.4375 L 6.484375 -6.140625 L 4.203125 -6.140625 L 4.203125 0 L 2.640625 0 L 2.640625 -6.140625 Z M 0.359375 -6.140625 "/></g></g></g><g fill="#3d3d3d" fill-opacity="1"><g transform="translate(193.927139, 225.848734)"><g><path d="M 0.640625 0 L 0.640625 -7.4375 L 3.578125 -7.4375 C 4.429688 -7.4375 5.085938 -7.21875 5.546875 -6.78125 C 6.015625 -6.34375 6.25 -5.753906 6.25 -5.015625 C 6.25 -4.503906 6.132812 -4.066406 5.90625 -3.703125 C 5.6875 -3.347656 5.363281 -3.078125 4.9375 -2.890625 L 6.515625 0 L 4.78125 0 L 3.375 -2.640625 L 2.21875 -2.640625 L 2.21875 0 Z M 2.21875 -3.90625 L 3.296875 -3.90625 C 4.179688 -3.90625 4.625 -4.273438 4.625 -5.015625 C 4.625 -5.773438 4.175781 -6.15625 3.28125 -6.15625 L 2.21875 -6.15625 Z M 2.21875 -3.90625 "/></g></g></g><g fill="#3d3d3d" fill-opacity="1"><g transform="translate(200.645402, 225.848734)"><g><path d="M 5.25 -7.4375 L 6.8125 -7.4375 L 6.8125 -2.515625 C 6.8125 -1.953125 6.679688 -1.472656 6.421875 -1.078125 C 6.160156 -0.691406 5.796875 -0.394531 5.328125 -0.1875 C 4.867188 0.0078125 4.335938 0.109375 3.734375 0.109375 C 3.128906 0.109375 2.59375 0.0078125 2.125 -0.1875 C 1.664062 -0.394531 1.300781 -0.691406 1.03125 -1.078125 C 0.769531 -1.472656 0.640625 -1.953125 0.640625 -2.515625 L 0.640625 -7.4375 L 2.21875 -7.4375 L 2.21875 -2.578125 C 2.21875 -2.179688 2.359375 -1.867188 2.640625 -1.640625 C 2.929688 -1.410156 3.296875 -1.296875 3.734375 -1.296875 C 4.171875 -1.296875 4.53125 -1.410156 4.8125 -1.640625 C 5.101562 -1.867188 5.25 -2.179688 5.25 -2.578125 Z M 5.25 -7.4375 "/></g></g></g><g fill="#3d3d3d" fill-opacity="1"><g transform="translate(208.112569, 225.848734)"><g><path d="M 4.6875 -5.296875 C 4.65625 -5.597656 4.523438 -5.828125 4.296875 -5.984375 C 4.078125 -6.148438 3.78125 -6.234375 3.40625 -6.234375 C 3.019531 -6.234375 2.722656 -6.148438 2.515625 -5.984375 C 2.316406 -5.828125 2.21875 -5.628906 2.21875 -5.390625 C 2.207031 -5.128906 2.316406 -4.929688 2.546875 -4.796875 C 2.785156 -4.660156 3.066406 -4.550781 3.390625 -4.46875 L 4.0625 -4.3125 C 4.488281 -4.21875 4.867188 -4.078125 5.203125 -3.890625 C 5.546875 -3.703125 5.8125 -3.460938 6 -3.171875 C 6.195312 -2.890625 6.296875 -2.539062 6.296875 -2.125 C 6.296875 -1.445312 6.039062 -0.90625 5.53125 -0.5 C 5.019531 -0.09375 4.3125 0.109375 3.40625 0.109375 C 2.5 0.109375 1.773438 -0.09375 1.234375 -0.5 C 0.703125 -0.914062 0.425781 -1.53125 0.40625 -2.34375 L 1.9375 -2.34375 C 1.957031 -1.96875 2.097656 -1.6875 2.359375 -1.5 C 2.628906 -1.3125 2.972656 -1.21875 3.390625 -1.21875 C 3.785156 -1.21875 4.101562 -1.300781 4.34375 -1.46875 C 4.582031 -1.632812 4.703125 -1.851562 4.703125 -2.125 C 4.703125 -2.375 4.59375 -2.566406 4.375 -2.703125 C 4.15625 -2.847656 3.84375 -2.96875 3.4375 -3.0625 L 2.625 -3.265625 C 2 -3.410156 1.503906 -3.644531 1.140625 -3.96875 C 0.773438 -4.300781 0.597656 -4.742188 0.609375 -5.296875 C 0.597656 -5.742188 0.710938 -6.132812 0.953125 -6.46875 C 1.203125 -6.8125 1.539062 -7.078125 1.96875 -7.265625 C 2.394531 -7.453125 2.878906 -7.546875 3.421875 -7.546875 C 3.972656 -7.546875 4.453125 -7.453125 4.859375 -7.265625 C 5.273438 -7.078125 5.597656 -6.8125 5.828125 -6.46875 C 6.066406 -6.132812 6.1875 -5.742188 6.1875 -5.296875 Z M 4.6875 -5.296875 "/></g></g></g><g fill="#3d3d3d" fill-opacity="1"><g transform="translate(214.816293, 225.848734)"><g><path d="M 3.28125 0 L 0.640625 0 L 0.640625 -7.4375 L 3.3125 -7.4375 C 4.0625 -7.4375 4.707031 -7.285156 5.25 -6.984375 C 5.789062 -6.691406 6.203125 -6.269531 6.484375 -5.71875 C 6.773438 -5.164062 6.921875 -4.503906 6.921875 -3.734375 C 6.921875 -2.953125 6.773438 -2.28125 6.484375 -1.71875 C 6.191406 -1.164062 5.773438 -0.738281 5.234375 -0.4375 C 4.691406 -0.144531 4.039062 0 3.28125 0 Z M 2.21875 -1.34375 L 3.21875 -1.34375 C 3.914062 -1.34375 4.445312 -1.53125 4.8125 -1.90625 C 5.175781 -2.289062 5.359375 -2.898438 5.359375 -3.734375 C 5.359375 -4.554688 5.175781 -5.15625 4.8125 -5.53125 C 4.445312 -5.90625 3.914062 -6.09375 3.21875 -6.09375 L 2.21875 -6.09375 Z M 2.21875 -1.34375 "/></g></g></g><g fill="#3d3d3d" fill-opacity="1"><g transform="translate(222.261644, 225.848734)"><g><path d="M 1.9375 0 L 0.25 0 L 2.8125 -7.4375 L 4.84375 -7.4375 L 7.40625 0 L 5.71875 0 L 5.171875 -1.703125 L 2.484375 -1.703125 Z M 2.875 -2.921875 L 4.765625 -2.921875 L 3.859375 -5.75 L 3.796875 -5.75 Z M 2.875 -2.921875 "/></g></g></g><g fill="#3d3d3d" fill-opacity="1"><g transform="translate(229.917845, 225.848734)"><g><path d="M 0.640625 0 L 0.640625 -7.4375 L 2.21875 -7.4375 L 2.21875 -1.296875 L 5.40625 -1.296875 L 5.40625 0 Z M 0.640625 0 "/></g></g></g></svg>